<?xml version="1.0" encoding="utf-8"?>
<!-- Generator: Adobe Illustrator 15.0.0, SVG Export Plug-In . SVG Version: 6.00 Build 0)  -->
<!DOCTYPE svg PUBLIC "-//W3C//DTD SVG 1.1//EN" "http://www.w3.org/Graphics/SVG/1.1/DTD/svg11.dtd">
<svg version="1.1" xmlns="http://www.w3.org/2000/svg" xmlns:xlink="http://www.w3.org/1999/xlink" x="0px" y="0px" width="1440px"
	 height="1080px" viewBox="0 0 1440 1080" enable-background="new 0 0 1440 1080" xml:space="preserve">
<g id="Layer_1">
	<g>
		<path fill="#E5DCE1" d="M158.57,451.379l15.093-36.111l4.848-31.279c0,0,8.875-54.086,11.646-57.63
			c2.77-3.511,7.65-33.566,7.65-33.566l-2.674-73.77l-8.73-49.351l-20.955-73.317l0.853,27.768c0,0-10.066,61.915-11.355,66.521
			c-1.305,4.639-17.073,46.807-17.073,46.807l-12.29,57.63l8.038,73.801L158.57,451.379z M155.623,273.368l3.802-28.252
			l11.436-50.317l0.66-4.156l6.346,25.804l-2.706,14.334l1.626,30.41l-4.88,36.079l-1.627,38.27l1.627,20.842l-11.388,52.605
			l-7.602-26.931l-1.095-29.122l-5.412-33.47L155.623,273.368z"/>
		<path fill="#E5DCE1" d="M221.033,389.014l13.578-11.758l7.586-18.232l2.159-32.6l3.253-25.223l14.11-10.019h22.774l39.091-7.344
			l-47.579-12.821l-32.745-0.225l-22.228,16.494l-16.3,31.73l-11.903,36.079l-4.558,54.151l17.573-7.634L221.033,389.014z
			 M205.2,369.268l3.271-18.652l6.587-19.424l14.738-30.861v4.156c0,0,1.208,10.115-0.081,13.24
			c-1.304,3.093-4.348,39.976-4.348,39.976l-26.625,32.278L205.2,369.268z"/>
		<path fill="#E5DCE1" d="M60.932,318.37l19.006,53.925l46.468,45.614l-12.29-120.382l-11.951-33.05l-45.582-23.903l11.966,28.283
			L60.932,318.37z M85.833,278.715l8.215,20.134l9.212,12.144l-2.158,23.902l6.508,47.806l-32.021-68.228L85.833,278.715z"/>
		<path fill="#E5DCE1" d="M304.53,371.039l-55.166,20.552L199.031,424.9l-13.143,36.079l-12.225,6.218l7.489-9.922l9.004-29.54
			v-19.328v-3.253v-0.612l-12.709,20.295l-6.974,28.38l-2.689,15.688l-3.044-12.595l-5.863-7.795l-3.93,4.703l-12.595-18.007
			l-2.851-14.979l-14.979-7.377l-4.574,22.356l20.133,21.067l8.118,6.507l-37.19-20.069l-9.019-11.758l-12.837-21.197
			l-17.509-18.394l-44.39-32.729l-6.378-23.806L0,310.284l3.64,28.574l9.165,42.683l42.376,45.196l45.228,29.346l50.898,17.943
			l0.821,12.048l17.895,27.704l4.478-26.061l19.521-19.876l6.459-14.625l42.779-21.905l47.627-15.301l51.284-34.244l20.182-49.737
			L304.53,371.039z M79.664,432.921l-23.387-22.807l-23.21-20.327l-15.608-28.315l21.116,20.294l24.531,12.435l19.812,27.961
			l13.835,13.046L79.664,432.921z M308.653,392.3l-27.687,10.437l-26.576,13.465l-36.353,13.884l20.069-16.525l29.862-16.913
			l31.456-13.948l30.925-12.145L308.653,392.3z"/>
	</g>
	<g>
		<path fill="#DEE8E5" d="M477.22,97.615l-17.598,42.107l-5.653,36.473c0,0-10.348,63.067-13.579,67.199
			c-3.229,4.094-8.92,39.14-8.92,39.14l3.118,86.018l10.179,57.545l24.434,85.492l-0.995-32.378c0,0,11.738-72.195,13.241-77.566
			c1.521-5.409,19.908-54.579,19.908-54.579l14.33-67.199l-9.372-86.055L477.22,97.615z M480.657,305.184l-4.433,32.943
			l-13.335,58.671l-0.77,4.846l-7.399-30.088l3.155-16.714l-1.896-35.459l5.69-42.069l1.897-44.625l-1.897-24.303l13.279-61.339
			l8.864,31.402l1.277,33.957l6.311,39.027L480.657,305.184z"/>
		<path fill="#DEE8E5" d="M404.387,170.336l-15.833,13.71l-8.846,21.26l-2.517,38.013l-3.794,29.412l-16.453,11.682h-26.556
			l-45.582,8.563l55.479,14.95l38.182,0.263l25.919-19.232l19.006-36.999l13.879-42.069l5.315-63.143l-20.491,8.902L404.387,170.336
			z M422.849,193.361l-3.813,21.749l-7.681,22.65l-17.186,35.985v-4.846c0,0-1.408-11.795,0.095-15.439
			c1.521-3.606,5.071-46.614,5.071-46.614l31.045-37.638L422.849,193.361z"/>
		<path fill="#DEE8E5" d="M591.071,252.71l-22.161-62.879l-54.185-53.188l14.33,140.37l13.936,38.538l53.15,27.872l-13.953-32.979
			L591.071,252.71z M562.036,298.95l-9.579-23.478l-10.742-14.16l2.517-27.871l-7.588-55.743l37.337,79.557L562.036,298.95z"/>
		<path fill="#DEE8E5" d="M307.026,191.295l64.325-23.964l58.69-38.84l15.326-42.069l14.255-7.25l-8.733,11.57l-10.5,34.444v22.538
			v3.793v0.714l14.819-23.665l8.132-33.092l3.136-18.292l3.55,14.687l6.837,9.09l4.583-5.484l14.687,20.998l3.324,17.467
			l17.467,8.602l5.333-26.069l-23.476-24.565l-9.465-7.587l43.366,23.401l10.517,13.71l14.969,24.716l20.416,21.448l51.76,38.163
			l7.438,27.759l24.34,28.623l-4.244-33.318l-10.687-49.771l-49.413-52.7l-52.738-34.219L485.69,71.209l-0.957-14.049
			l-20.866-32.303l-5.222,30.387l-22.762,23.177l-7.532,17.053l-49.883,25.543l-55.535,17.841l-59.799,39.929l-23.533,57.996
			L307.026,191.295z M569.229,119.139l27.27,26.594l27.064,23.702l18.199,33.017l-24.622-23.664l-28.604-14.499l-23.101-32.604
			l-16.133-15.213L569.229,119.139z M302.218,166.504l32.284-12.17l30.989-15.701l42.39-16.189l-23.402,19.269l-34.82,19.721
			l-36.679,16.264l-36.06,14.161L302.218,166.504z"/>
	</g>
	<g>
		<path fill="#E9D2BF" d="M87.762,112.169l-6.04,14.45l-1.94,12.517c0,0-3.551,21.643-4.66,23.061
			c-1.109,1.405-3.062,13.432-3.062,13.432l1.07,29.52l3.493,19.748l8.386,29.339l-0.342-11.112c0,0,4.028-24.776,4.544-26.619
			c0.522-1.856,6.832-18.73,6.832-18.73l4.917-23.061l-3.216-29.532L87.762,112.169z M88.941,183.402l-1.521,11.305l-4.576,20.135
			l-0.264,1.663l-2.54-10.326l1.083-5.736l-0.651-12.169l1.953-14.438l0.651-15.314l-0.651-8.34l4.557-21.05l3.042,10.776
			l0.438,11.653l2.166,13.394L88.941,183.402z"/>
		<path fill="#E9D2BF" d="M62.767,137.125l-5.434,4.705l-3.036,7.296l-0.864,13.045l-1.302,10.093l-5.646,4.009h-9.113
			l-15.643,2.939l19.039,5.13l13.104,0.09l8.895-6.6l6.522-12.698l4.763-14.437l1.824-21.669l-7.032,3.055L62.767,137.125z
			 M69.103,145.027l-1.309,7.464l-2.636,7.773l-5.897,12.349v-1.663c0,0-0.483-4.047,0.032-5.298
			c0.522-1.238,1.74-15.997,1.74-15.997l10.654-12.917L69.103,145.027z"/>
		<path fill="#E9D2BF" d="M126.833,165.394l-7.605-21.579l-18.595-18.253l4.917,48.172l4.783,13.226l18.24,9.565l-4.788-11.318
			L126.833,165.394z M116.869,181.262l-3.288-8.057l-3.687-4.859l0.864-9.565l-2.604-19.129l12.813,27.302L116.869,181.262z"/>
		<path fill="#E9D2BF" d="M29.354,144.318l22.075-8.224l20.142-13.329l5.259-14.437l4.892-2.488l-2.997,3.97l-3.603,11.821v7.734
			v1.302v0.245l5.085-8.121l2.791-11.357l1.076-6.277l1.218,5.04l2.347,3.12l1.572-1.882l5.04,7.206l1.141,5.994l5.995,2.952
			l1.83-8.946l-8.056-8.43l-3.249-2.604l14.882,8.031l3.609,4.705l5.137,8.482l7.006,7.36l17.763,13.097l2.552,9.526l8.353,9.822
			l-1.457-11.434l-3.667-17.08l-16.958-18.085l-18.098-11.743l-20.367-7.18l-0.328-4.821L83.179,87.2l-1.792,10.428l-7.812,7.954
			l-2.584,5.852L53.873,120.2l-19.059,6.123l-20.521,13.703l-8.076,19.903L29.354,144.318z M119.337,119.556l9.358,9.126
			l9.288,8.134l6.246,11.331l-8.45-8.121l-9.816-4.976l-7.928-11.189l-5.537-5.221L119.337,119.556z M27.705,135.811l11.08-4.177
			l10.634-5.388l14.547-5.556l-8.031,6.613l-11.95,6.768l-12.587,5.582l-12.375,4.859L27.705,135.811z"/>
	</g>
	<g>
		<path fill="#E1E5CB" d="M522.158,628.551l10.011-23.953l3.216-20.748c0,0,5.887-35.876,7.724-38.227
			c1.838-2.329,5.075-22.265,5.075-22.265l-1.774-48.932l-5.791-32.734l-13.899-48.632l0.565,18.418c0,0-6.677,41.068-7.532,44.124
			c-0.866,3.078-11.325,31.047-11.325,31.047l-8.151,38.226l5.331,48.953L522.158,628.551z M520.203,510.474l2.521-18.739
			l7.585-33.375l0.438-2.757l4.209,17.115l-1.794,9.508l1.079,20.171l-3.237,23.932l-1.08,25.384l1.08,13.824l-7.553,34.894
			l-5.042-17.863l-0.727-19.316l-3.59-22.201L520.203,510.474z"/>
		<path fill="#E1E5CB" d="M563.589,587.182l9.007-7.799l5.031-12.093l1.432-21.624l2.158-16.731l9.359-6.644h15.106l25.93-4.872
			l-31.56-8.504l-21.72-0.149l-14.744,10.94l-10.812,21.046l-7.895,23.932l-3.024,35.918l11.656-5.064L563.589,587.182z
			 M553.087,574.085l2.169-12.372l4.369-12.885l9.776-20.47v2.756c0,0,0.801,6.71-0.053,8.783
			c-0.866,2.051-2.885,26.517-2.885,26.517l-17.66,21.41L553.087,574.085z"/>
		<path fill="#E1E5CB" d="M457.394,540.324L470,576.094l30.823,30.256l-8.152-79.851l-7.928-21.922l-30.233-15.854l7.937,18.76
			L457.394,540.324z M473.91,514.021l5.449,13.354l6.111,8.055l-1.432,15.854l4.316,31.709l-21.238-45.255L473.91,514.021z"/>
		<path fill="#E1E5CB" d="M618.973,575.26l-36.591,13.632l-33.386,22.095l-8.718,23.932l-8.109,4.123l4.968-6.582l5.972-19.594
			v-12.82v-2.158v-0.404l-8.43,13.461l-4.626,18.824l-1.784,10.406l-2.02-8.355l-3.889-5.17l-2.606,3.119l-8.355-11.943l-1.89-9.936
			l-9.937-4.895l-3.034,14.83l13.354,13.974l5.384,4.316l-24.668-13.312l-5.982-7.8l-8.515-14.059l-11.613-12.201l-29.445-21.709
			l-4.23-15.791l-13.846-16.281l2.414,18.953l6.079,28.312l28.109,29.979l30,19.466l33.761,11.9l0.544,7.992l11.87,18.375
			l2.97-17.285l12.949-13.184l4.284-9.701l28.376-14.529l31.592-10.15l34.016-22.713l13.386-32.991L618.973,575.26z
			 M469.818,616.307l-15.513-15.129l-15.395-13.482l-10.353-18.781l14.006,13.461l16.271,8.248l13.141,18.547l9.177,8.654
			L469.818,616.307z M621.708,589.363l-18.365,6.922l-17.628,8.932l-24.113,9.209l13.312-10.961l19.808-11.219l20.864-9.252
			l20.512-8.055L621.708,589.363z"/>
	</g>
	<g>
		<path fill="#E5DCE1" d="M466.458,988.852l15.093-36.111l4.849-31.279c0,0,8.874-54.086,11.645-57.629
			c2.77-3.512,7.65-33.566,7.65-33.566l-2.674-73.77l-8.729-49.351l-20.954-73.317l0.853,27.768c0,0-10.066,61.914-11.354,66.521
			c-1.305,4.639-17.074,46.808-17.074,46.808l-12.289,57.629l8.037,73.801L466.458,988.852z M463.511,810.842l3.802-28.252
			l11.437-50.317l0.659-4.156l6.346,25.804l-2.706,14.334l1.627,30.41l-4.88,36.079l-1.627,38.271l1.627,20.842l-11.388,52.605
			l-7.602-26.932l-1.096-29.121l-5.412-33.471L463.511,810.842z"/>
		<path fill="#E5DCE1" d="M528.921,926.486l13.578-11.758l7.586-18.232l2.158-32.6l3.254-25.223l14.109-10.02h22.774l39.091-7.344
			l-47.578-12.821l-32.746-0.226l-22.227,16.494l-16.301,31.73l-11.902,36.078l-4.559,54.15l17.572-7.633L528.921,926.486z
			 M513.087,906.74l3.271-18.652l6.586-19.424l14.738-30.861v4.156c0,0,1.207,10.115-0.081,13.24
			c-1.304,3.092-4.349,39.977-4.349,39.977l-26.624,32.277L513.087,906.74z"/>
		<path fill="#E5DCE1" d="M368.82,855.844l19.006,53.924l46.469,45.615l-12.29-120.382l-11.951-33.05l-45.581-23.904l11.966,28.283
			L368.82,855.844z M393.72,816.188l8.215,20.135l9.213,12.145l-2.158,23.9l6.508,47.807l-32.021-68.229L393.72,816.188z"/>
		<path fill="#E5DCE1" d="M612.417,908.512l-55.165,20.553l-50.333,33.309l-13.143,36.078l-12.226,6.219l7.489-9.922l9.004-29.541
			v-19.328v-3.252v-0.613l-12.709,20.295l-6.974,28.381l-2.689,15.688l-3.044-12.596l-5.863-7.795l-3.93,4.703l-12.596-18.008
			l-2.852-14.98l-14.979-7.377l-4.574,22.357l20.133,21.066l8.117,6.508l-37.189-20.068l-9.02-11.758l-12.838-21.197l-17.508-18.395
			l-44.391-32.729l-6.378-23.805l-20.874-24.547l3.64,28.572l9.165,42.684l42.377,45.195l45.228,29.346l50.897,17.943l0.821,12.049
			l17.895,27.703l4.478-26.061l19.521-19.877l6.459-14.623l42.779-21.906l47.628-15.301l51.284-34.244l20.182-49.736
			L612.417,908.512z M387.552,970.395l-23.387-22.809l-23.21-20.326l-15.608-28.314l21.116,20.293l24.53,12.436l19.812,27.961
			l13.835,13.047L387.552,970.395z M616.542,929.773l-27.687,10.436l-26.576,13.467l-36.354,13.883l20.068-16.525l29.863-16.912
			l31.455-13.947l30.926-12.145L616.542,929.773z"/>
	</g>
	<g>
		<path fill="#DEE8E5" d="M237.619,557.043l-17.599,42.106l-5.653,36.473c0,0-10.348,63.067-13.579,67.199
			c-3.229,4.095-8.921,39.141-8.921,39.141l3.118,86.018l10.179,57.545l24.434,85.492l-0.994-32.379
			c0,0,11.738-72.195,13.241-77.566c1.521-5.408,19.907-54.578,19.907-54.578l14.33-67.199l-9.371-86.055L237.619,557.043z
			 M241.056,764.611l-4.433,32.942l-13.335,58.672l-0.77,4.846l-7.399-30.088l3.154-16.715l-1.896-35.459l5.69-42.068l1.897-44.625
			l-1.897-24.303l13.278-61.34l8.865,31.402l1.276,33.957l6.311,39.027L241.056,764.611z"/>
		<path fill="#DEE8E5" d="M164.785,629.764l-15.832,13.71l-8.846,21.26l-2.518,38.014l-3.793,29.411l-16.453,11.682H90.787
			l-45.582,8.563l55.479,14.95l38.183,0.263l25.918-19.232l19.007-36.998l13.88-42.07l5.314-63.143l-20.49,8.902L164.785,629.764z
			 M183.247,652.788l-3.813,21.749l-7.68,22.649l-17.186,35.986v-4.846c0,0-1.408-11.795,0.094-15.439
			c1.521-3.605,5.071-46.613,5.071-46.613l31.045-37.639L183.247,652.788z"/>
		<path fill="#DEE8E5" d="M351.469,712.138l-22.16-62.879l-54.185-53.189l14.33,140.371l13.937,38.537l53.149,27.873l-13.953-32.98
			L351.469,712.138z M322.435,758.377l-9.579-23.478l-10.742-14.16l2.517-27.871l-7.589-55.743l37.338,79.557L322.435,758.377z"/>
		<path fill="#DEE8E5" d="M67.424,650.723l64.326-23.964l58.689-38.84l15.326-42.069l14.255-7.25l-8.733,11.57l-10.499,34.443
			v22.539v3.793v0.714l14.819-23.665l8.132-33.093l3.136-18.292l3.551,14.687l6.836,9.09l4.583-5.484l14.687,20.998l3.324,17.468
			l17.467,8.602l5.333-26.069l-23.476-24.565l-9.466-7.587l43.366,23.4l10.516,13.711l14.969,24.716l20.416,21.447l51.761,38.163
			l7.438,27.759l24.34,28.623l-4.244-33.318l-10.687-49.77l-49.413-52.7l-52.737-34.219l-59.35-20.922l-0.957-14.049l-20.865-32.303
			l-5.222,30.387l-22.763,23.177L188.75,554.9l-49.883,25.544l-55.535,17.841l-59.8,39.929L0,696.21L67.424,650.723z
			 M329.627,578.565l27.27,26.595l27.064,23.702l18.199,33.016l-24.621-23.664l-28.605-14.498l-23.1-32.604l-16.133-15.213
			L329.627,578.565z M62.616,625.932l32.284-12.17l30.988-15.7l42.391-16.189l-23.402,19.269l-34.82,19.721l-36.679,16.264
			l-36.06,14.161L62.616,625.932z"/>
	</g>
	<g>
		<path fill="#E9D2BF" d="M375.409,410.003l-7.884,18.863l-2.533,16.338c0,0-4.635,28.252-6.082,30.103
			c-1.447,1.834-3.997,17.534-3.997,17.534l1.397,38.534l4.559,25.777l10.948,38.299l-0.446-14.506c0,0,5.257-32.34,5.93-34.746
			c0.682-2.424,8.918-24.45,8.918-24.45l6.419-30.103l-4.198-38.55L375.409,410.003z M376.949,502.987l-1.986,14.757l-5.973,26.283
			l-0.346,2.172l-3.315-13.478l1.415-7.488l-0.85-15.885l2.548-18.846l0.852-19.99l-0.852-10.887l5.949-27.478l3.971,14.067
			l0.573,15.211l2.826,17.483L376.949,502.987z"/>
		<path fill="#E9D2BF" d="M342.782,442.58l-7.093,6.142l-3.963,9.524l-1.127,17.028l-1.699,13.175l-7.371,5.233h-11.896
			l-20.419,3.836l24.853,6.697l17.104,0.118l11.611-8.615l8.514-16.575l6.218-18.846l2.38-28.286l-9.18,3.988L342.782,442.58z
			 M351.051,452.894l-1.708,9.743l-3.439,10.146l-7.699,16.12v-2.171c0,0-0.631-5.283,0.043-6.916
			c0.681-1.616,2.271-20.882,2.271-20.882l13.906-16.86L351.051,452.894z"/>
		<path fill="#E9D2BF" d="M426.41,479.48l-9.928-28.167l-24.271-23.827l6.418,62.881l6.243,17.264l23.81,12.486l-6.25-14.774
			L426.41,479.48z M413.405,500.194l-4.292-10.517l-4.812-6.343l1.127-12.486l-3.398-24.971l16.725,35.639L413.405,500.194z"/>
		<path fill="#E9D2BF" d="M299.167,451.969l28.816-10.735l26.291-17.399l6.866-18.845l6.385-3.248l-3.912,5.183l-4.703,15.43v10.096
			v1.699v0.32l6.638-10.601l3.643-14.825l1.405-8.194l1.591,6.579l3.062,4.072l2.052-2.457l6.581,9.407l1.489,7.824l7.825,3.854
			l2.389-11.678l-10.517-11.004l-4.24-3.399l19.427,10.483l4.71,6.142l6.705,11.072l9.146,9.608l23.187,17.096l3.331,12.435
			l10.904,12.822l-1.902-14.925l-4.787-22.295l-22.137-23.608l-23.624-15.329l-26.586-9.373l-0.429-6.293l-9.348-14.471
			l-2.339,13.613l-10.197,10.382l-3.374,7.639l-22.346,11.442l-24.879,7.993l-26.788,17.887l-10.542,25.98L299.167,451.969z
			 M416.625,419.645l12.217,11.914l12.123,10.617l8.153,14.791l-11.029-10.601l-12.814-6.495l-10.349-14.605l-7.228-6.815
			L416.625,419.645z M297.013,440.864l14.463-5.452l13.881-7.034l18.989-7.252l-10.482,8.632l-15.599,8.834l-16.431,7.286
			l-16.154,6.343L297.013,440.864z"/>
	</g>
	<g>
		<path fill="#E1E5CB" d="M656.865,106.696l10.011-23.953l3.216-20.746c0,0,5.887-35.877,7.724-38.229
			c1.838-2.328,5.076-22.264,5.076-22.264l-1.774-48.932l-5.79-32.734l-13.899-48.631l0.565,18.418c0,0-6.678,41.068-7.531,44.123
			c-0.866,3.078-11.325,31.047-11.325,31.047l-8.151,38.227l5.331,48.953L656.865,106.696z M654.911-11.38l2.521-18.738
			l7.585-33.375l0.438-2.758l4.21,17.115l-1.795,9.508l1.078,20.172l-3.236,23.932l-1.08,25.385l1.08,13.824l-7.554,34.893
			l-5.042-17.863l-0.727-19.316l-3.591-22.201L654.911-11.38z"/>
		<path fill="#E1E5CB" d="M698.297,65.329l9.007-7.799l5.031-12.094l1.432-21.623l2.158-16.732l9.359-6.645h15.106l25.93-4.871
			l-31.56-8.504l-21.721-0.15L698.297-2.148l-10.812,21.045l-7.895,23.932l-3.024,35.918l11.655-5.062L698.297,65.329z
			 M687.795,52.231l2.169-12.373l4.369-12.883l9.775-20.471V9.26c0,0,0.802,6.711-0.053,8.783
			c-0.865,2.051-2.885,26.516-2.885,26.516l-17.66,21.412L687.795,52.231z"/>
		<path fill="#E1E5CB" d="M592.101,18.469l12.607,35.77l30.822,30.256l-8.151-79.85l-7.929-21.922l-30.232-15.855l7.937,18.762
			L592.101,18.469z M608.618-7.833l5.449,13.355l6.11,8.055l-1.432,15.855l4.315,31.709l-21.238-45.256L608.618-7.833z"/>
		<path fill="#E1E5CB" d="M753.681,53.407l-36.592,13.631l-33.386,22.094l-8.718,23.932l-8.109,4.125l4.968-6.582l5.972-19.594
			v-12.82v-2.158v-0.406l-8.43,13.461l-4.626,18.826l-1.784,10.406l-2.02-8.355l-3.889-5.172l-2.605,3.121l-8.355-11.943
			l-1.891-9.938l-9.936-4.893l-3.034,14.83l13.354,13.973l5.385,4.316l-24.669-13.312l-5.982-7.799l-8.515-14.059l-11.613-12.201
			L569.761,45.18l-4.23-15.791l-13.846-16.281l2.414,18.953l6.079,28.311l28.108,29.979l30,19.467l33.762,11.9l0.544,7.992
			l11.87,18.375l2.97-17.287l12.948-13.184l4.285-9.699l28.375-14.531l31.592-10.148l34.017-22.715l13.386-32.99L753.681,53.407z
			 M604.526,94.454l-15.514-15.129L573.618,65.84l-10.353-18.781l14.007,13.461l16.271,8.248l13.142,18.549l9.177,8.654
			L604.526,94.454z M756.416,67.508l-18.364,6.924l-17.629,8.932l-24.113,9.209l13.312-10.963l19.807-11.217l20.865-9.252
			l20.512-8.057L756.416,67.508z"/>
	</g>
	<g>
		<path fill="#E5DCE1" d="M1011.009,740.74l15.092-36.11l4.85-31.279c0,0,8.873-54.086,11.645-57.629
			c2.77-3.512,7.65-33.567,7.65-33.567l-2.674-73.77l-8.73-49.351l-20.953-73.317l0.852,27.768c0,0-10.066,61.915-11.354,66.521
			c-1.305,4.639-17.074,46.807-17.074,46.807l-12.289,57.631l8.037,73.801L1011.009,740.74z M1008.062,562.729l3.801-28.252
			l11.438-50.316l0.658-4.156l6.346,25.804l-2.705,14.335l1.627,30.41l-4.881,36.078l-1.627,38.27l1.627,20.844l-11.387,52.604
			l-7.602-26.93l-1.096-29.121l-5.412-33.471L1008.062,562.729z"/>
		<path fill="#E5DCE1" d="M1073.472,678.376l13.578-11.758l7.586-18.232l2.158-32.6l3.254-25.225l14.109-10.018h22.773l39.092-7.345
			l-47.578-12.821l-32.746-0.225l-22.227,16.493l-16.301,31.729l-11.902,36.08l-4.559,54.15l17.572-7.635L1073.472,678.376z
			 M1057.638,658.63l3.271-18.652l6.586-19.424l14.738-30.861v4.155c0,0,1.207,10.116-0.082,13.241
			c-1.303,3.092-4.348,39.975-4.348,39.975l-26.625,32.279L1057.638,658.63z"/>
		<path fill="#E5DCE1" d="M913.37,607.731l19.006,53.926l46.469,45.615L966.554,586.89l-11.951-33.051l-45.581-23.902l11.966,28.283
			L913.37,607.731z M938.271,568.077l8.215,20.134l9.213,12.144l-2.158,23.902l6.508,47.807l-32.021-68.229L938.271,568.077z"/>
		<path fill="#E5DCE1" d="M1156.968,660.401l-55.166,20.553l-50.332,33.309l-13.143,36.077l-12.227,6.219l7.49-9.922l9.004-29.54
			v-19.328v-3.254v-0.611l-12.709,20.295l-6.975,28.38l-2.689,15.688l-3.043-12.596l-5.863-7.795l-3.93,4.703l-12.596-18.007
			l-2.852-14.98l-14.979-7.377l-4.574,22.357l20.133,21.065l8.117,6.508l-37.19-20.069l-9.019-11.758l-12.838-21.195l-17.509-18.395
			l-44.39-32.729l-6.379-23.807l-20.873-24.547l3.639,28.574l9.166,42.684l42.376,45.195l45.228,29.345l50.898,17.943l0.82,12.049
			l17.895,27.703l4.479-26.061l19.521-19.877l6.459-14.623l42.779-21.905l47.627-15.301l51.285-34.244l20.182-49.736
			L1156.968,660.401z M932.103,722.282l-23.387-22.807l-23.211-20.326l-15.607-28.314l21.115,20.293l24.531,12.436l19.812,27.961
			l13.835,13.047L932.103,722.282z M1161.091,681.661l-27.686,10.438l-26.576,13.465l-36.354,13.885l20.068-16.525l29.863-16.912
			l31.455-13.947l30.926-12.145L1161.091,681.661z"/>
	</g>
	<g>
		<path fill="#DEE8E5" d="M800.129,287.874l-17.599,42.107l-5.653,36.473c0,0-10.348,63.067-13.579,67.199
			c-3.229,4.094-8.921,39.14-8.921,39.14l3.118,86.018l10.179,57.545l24.434,85.491l-0.994-32.378c0,0,11.738-72.195,13.241-77.566
			c1.521-5.408,19.907-54.578,19.907-54.578l14.33-67.199l-9.371-86.055L800.129,287.874z M803.565,495.443l-4.433,32.943
			l-13.335,58.672l-0.77,4.846l-7.399-30.088l3.154-16.715l-1.896-35.459l5.69-42.069l1.897-44.625l-1.897-24.303l13.278-61.339
			l8.865,31.402l1.276,33.957l6.311,39.027L803.565,495.443z"/>
		<path fill="#DEE8E5" d="M727.295,360.595l-15.832,13.71l-8.846,21.26l-2.518,38.013l-3.793,29.412l-16.453,11.682h-26.557
			l-45.582,8.563l55.479,14.95l38.183,0.263l25.918-19.232l19.007-36.999l13.88-42.069l5.314-63.143l-20.49,8.902L727.295,360.595z
			 M745.757,383.62l-3.813,21.749l-7.68,22.65l-17.186,35.985v-4.846c0,0-1.408-11.795,0.094-15.439
			c1.521-3.606,5.071-46.614,5.071-46.614l31.045-37.638L745.757,383.62z"/>
		<path fill="#DEE8E5" d="M913.979,442.969l-22.16-62.879l-54.185-53.188l14.33,140.37L865.9,505.81l53.149,27.872l-13.953-32.979
			L913.979,442.969z M884.944,489.208l-9.579-23.478l-10.742-14.16l2.517-27.871l-7.589-55.743l37.338,79.557L884.944,489.208z"/>
		<path fill="#DEE8E5" d="M629.934,381.554l64.326-23.964l58.689-38.84l15.326-42.069l14.255-7.25L773.797,281l-10.499,34.444
			v22.538v3.793v0.714l14.819-23.665l8.132-33.092l3.136-18.292l3.551,14.687l6.836,9.09l4.583-5.484l14.687,20.998l3.324,17.467
			l17.467,8.602l5.333-26.069l-23.476-24.565l-9.466-7.587l43.366,23.401l10.516,13.71l14.969,24.716l20.416,21.448l51.761,38.163
			l7.438,27.759l24.34,28.623l-4.244-33.318l-10.687-49.771l-49.413-52.7l-52.737-34.219l-59.35-20.922l-0.957-14.049
			l-20.865-32.303l-5.222,30.387l-22.763,23.177l-7.531,17.053l-49.883,25.543l-55.535,17.841l-59.8,39.929l-23.532,57.996
			L629.934,381.554z M892.137,309.397l27.27,26.594l27.064,23.702l18.199,33.017l-24.621-23.664l-28.605-14.499l-23.1-32.604
			l-16.133-15.213L892.137,309.397z M625.126,356.763l32.284-12.17l30.988-15.701l42.391-16.189l-23.402,19.269l-34.82,19.721
			l-36.679,16.264l-36.06,14.161L625.126,356.763z"/>
	</g>
	<g>
		<path fill="#E9D2BF" d="M745.507,124.429l-6.04,14.45l-1.94,12.517c0,0-3.551,21.643-4.659,23.061
			c-1.108,1.405-3.062,13.432-3.062,13.432l1.07,29.52l3.492,19.748l8.387,29.339l-0.342-11.112c0,0,4.027-24.776,4.543-26.619
			c0.522-1.856,6.832-18.73,6.832-18.73l4.918-23.061l-3.216-29.532L745.507,124.429z M746.687,195.661l-1.521,11.305l-4.576,20.135
			l-0.265,1.663l-2.54-10.326l1.084-5.736l-0.651-12.169l1.952-14.438l0.652-15.314l-0.652-8.34l4.558-21.05l3.042,10.776
			l0.438,11.653l2.165,13.394L746.687,195.661z"/>
		<path fill="#E9D2BF" d="M720.512,149.385l-5.434,4.705l-3.036,7.296l-0.864,13.045l-1.302,10.093l-5.646,4.009h-9.113
			l-15.643,2.939l19.039,5.13l13.104,0.09l8.895-6.6l6.522-12.698l4.764-14.437l1.823-21.669l-7.032,3.055L720.512,149.385z
			 M726.847,157.286l-1.309,7.464l-2.635,7.773l-5.898,12.349v-1.663c0,0-0.483-4.047,0.033-5.298
			c0.521-1.238,1.74-15.997,1.74-15.997l10.653-12.917L726.847,157.286z"/>
		<path fill="#E9D2BF" d="M784.577,177.653l-7.605-21.579l-18.594-18.253l4.917,48.172l4.782,13.226l18.24,9.565l-4.788-11.318
			L784.577,177.653z M774.614,193.521l-3.288-8.057l-3.687-4.859l0.863-9.565l-2.604-19.129l12.812,27.302L774.614,193.521z"/>
		<path fill="#E9D2BF" d="M687.099,156.577l22.075-8.224l20.141-13.329l5.26-14.437l4.892-2.488l-2.997,3.97l-3.603,11.821v7.734
			v1.302v0.245l5.085-8.121l2.791-11.357l1.076-6.277l1.219,5.04l2.346,3.12l1.572-1.882l5.041,7.206l1.141,5.994l5.994,2.952
			l1.83-8.946l-8.057-8.43l-3.248-2.604l14.883,8.031l3.608,4.705l5.137,8.482l7.007,7.36l17.763,13.097l2.552,9.526l8.354,9.822
			l-1.457-11.434l-3.667-17.08l-16.958-18.085l-18.098-11.743l-20.367-7.18l-0.328-4.821l-7.161-11.086l-1.792,10.428l-7.812,7.954
			l-2.585,5.852l-17.118,8.766l-19.059,6.123l-20.521,13.703l-8.076,19.903L687.099,156.577z M777.081,131.815l9.359,9.126
			l9.287,8.134l6.246,11.331l-8.449-8.121l-9.816-4.976l-7.928-11.189l-5.537-5.221L777.081,131.815z M685.449,148.07l11.08-4.177
			l10.634-5.388l14.547-5.556l-8.03,6.613l-11.95,6.768l-12.587,5.582l-12.375,4.859L685.449,148.07z"/>
	</g>
	<g>
		<path fill="#E1E5CB" d="M945.818,269.974l10.011-23.953l3.216-20.747c0,0,5.887-35.876,7.724-38.228
			c1.838-2.328,5.076-22.264,5.076-22.264l-1.774-48.932l-5.79-32.734l-13.899-48.632l0.565,18.418c0,0-6.678,41.068-7.531,44.124
			c-0.866,3.078-11.325,31.047-11.325,31.047l-8.151,38.227l5.331,48.952L945.818,269.974z M943.864,151.897l2.521-18.739
			l7.585-33.375l0.438-2.757l4.21,17.115l-1.795,9.508l1.078,20.172l-3.236,23.932l-1.08,25.384l1.08,13.825l-7.554,34.893
			l-5.042-17.863l-0.727-19.316l-3.591-22.201L943.864,151.897z"/>
		<path fill="#E1E5CB" d="M987.25,228.606l9.007-7.799l5.031-12.094l1.432-21.624l2.158-16.731l9.359-6.645h15.106l25.93-4.871
			l-31.56-8.505l-21.721-0.149l-14.743,10.94l-10.812,21.046l-7.895,23.932l-3.024,35.918l11.655-5.063L987.25,228.606z
			 M976.748,215.509l2.169-12.373l4.369-12.884l9.775-20.47v2.756c0,0,0.802,6.711-0.053,8.783
			c-0.865,2.051-2.885,26.516-2.885,26.516l-17.66,21.411L976.748,215.509z"/>
		<path fill="#E1E5CB" d="M881.054,181.747l12.607,35.77l30.822,30.256l-8.151-79.85l-7.929-21.922l-30.232-15.855l7.937,18.761
			L881.054,181.747z M897.571,155.444l5.449,13.355l6.11,8.055l-1.432,15.854l4.315,31.71l-21.238-45.256L897.571,155.444z"/>
		<path fill="#E1E5CB" d="M1042.634,216.684l-36.592,13.632l-33.386,22.094l-8.718,23.932l-8.109,4.125l4.968-6.582l5.972-19.594
			v-12.82v-2.159v-0.405l-8.43,13.461l-4.626,18.825l-1.784,10.406l-2.02-8.354l-3.889-5.172l-2.605,3.12l-8.355-11.943
			l-1.891-9.937l-9.936-4.894l-3.034,14.83l13.354,13.974l5.385,4.316l-24.669-13.312l-5.982-7.799l-8.515-14.06l-11.613-12.201
			l-29.445-21.708l-4.23-15.791l-13.846-16.282l2.414,18.953l6.079,28.312l28.108,29.979l30,19.466l33.762,11.901l0.544,7.991
			l11.87,18.376l2.97-17.287l12.948-13.184l4.285-9.7l28.375-14.53l31.592-10.148l34.017-22.715l13.386-32.99L1042.634,216.684z
			 M893.479,257.73l-15.514-15.129l-15.395-13.483l-10.353-18.781l14.007,13.461l16.271,8.248l13.142,18.548l9.177,8.654
			L893.479,257.73z M1045.369,230.786l-18.364,6.923l-17.629,8.932l-24.113,9.21l13.312-10.963l19.807-11.218l20.865-9.251
			l20.512-8.057L1045.369,230.786z"/>
	</g>
	<g>
		<path fill="#E5DCE1" d="M1408.414,748.674l15.093-36.111l4.849-31.279c0,0,8.874-54.086,11.645-57.629
			c2.77-3.512,7.65-33.566,7.65-33.566l-2.674-73.769l-8.729-49.351l-20.954-73.317l0.853,27.768c0,0-10.066,61.914-11.354,66.521
			c-1.305,4.639-17.074,46.808-17.074,46.808l-12.289,57.628l8.037,73.801L1408.414,748.674z M1405.467,570.664l3.802-28.252
			l11.437-50.317l0.659-4.156l6.346,25.804l-2.706,14.334l1.627,30.41l-4.88,36.08l-1.627,38.27l1.627,20.842l-11.388,52.605
			l-7.602-26.932l-1.096-29.121l-5.412-33.471L1405.467,570.664z"/>
		<path fill="#E5DCE1" d="M1470.877,686.309l13.578-11.758l7.586-18.232l2.158-32.6l3.254-25.223l14.109-10.02h22.774l39.091-7.344
			l-47.578-12.82l-32.746-0.227l-22.227,16.494l-16.301,31.73l-11.902,36.078l-4.559,54.15l17.572-7.633L1470.877,686.309z
			 M1455.043,666.562l3.271-18.652l6.586-19.424l14.738-30.861v4.156c0,0,1.207,10.115-0.081,13.24
			c-1.304,3.092-4.349,39.977-4.349,39.977l-26.624,32.277L1455.043,666.562z"/>
		<path fill="#E5DCE1" d="M1310.775,615.666l19.006,53.924l46.469,45.615l-12.29-120.381l-11.951-33.051l-45.581-23.904
			l11.966,28.283L1310.775,615.666z M1335.676,576.01l8.215,20.135l9.213,12.145l-2.158,23.9l6.508,47.807l-32.021-68.229
			L1335.676,576.01z"/>
		<path fill="#E5DCE1" d="M1554.373,668.334l-55.165,20.553l-50.333,33.309l-13.143,36.078l-12.226,6.219l7.489-9.922l9.004-29.541
			v-19.328v-3.252v-0.613l-12.709,20.295l-6.974,28.381l-2.689,15.688l-3.044-12.596l-5.863-7.795l-3.93,4.703l-12.596-18.008
			l-2.852-14.98l-14.979-7.377l-4.574,22.357l20.133,21.066l8.117,6.508l-37.189-20.068l-9.02-11.758l-12.838-21.197l-17.508-18.395
			l-44.391-32.729l-6.378-23.805l-20.874-24.547l3.64,28.572l9.165,42.684l42.377,45.195l45.228,29.346l50.897,17.943l0.821,12.049
			l17.895,27.703l4.478-26.061l19.521-19.877l6.459-14.623l42.779-21.906l47.628-15.301l51.284-34.244l20.182-49.736
			L1554.373,668.334z M1329.508,730.217l-23.387-22.809l-23.21-20.326l-15.608-28.314l21.116,20.293l24.53,12.436l19.812,27.961
			l13.835,13.047L1329.508,730.217z M1558.497,689.596l-27.687,10.436l-26.576,13.467l-36.354,13.883l20.068-16.525l29.863-16.912
			l31.455-13.947l30.926-12.145L1558.497,689.596z"/>
	</g>
	<g>
		<path fill="#DEE8E5" d="M890.086,776.271l-17.599,42.107l-5.653,36.473c0,0-10.348,63.067-13.579,67.199
			c-3.229,4.095-8.921,39.141-8.921,39.141l3.118,86.018l10.179,57.545l24.434,85.492l-0.994-32.379
			c0,0,11.738-72.195,13.241-77.566c1.521-5.408,19.907-54.578,19.907-54.578l14.33-67.199l-9.371-86.055L890.086,776.271z
			 M893.522,983.841l-4.433,32.942l-13.335,58.672l-0.77,4.846l-7.399-30.088l3.154-16.715l-1.896-35.459l5.69-42.068l1.897-44.625
			l-1.897-24.303l13.278-61.34l8.865,31.402l1.276,33.957l6.311,39.027L893.522,983.841z"/>
		<path fill="#DEE8E5" d="M817.252,848.993l-15.832,13.71l-8.846,21.26l-2.518,38.014l-3.793,29.411l-16.453,11.682h-26.557
			l-45.582,8.563l55.479,14.95l38.183,0.263l25.918-19.232l19.007-36.998l13.88-42.07l5.314-63.143l-20.49,8.902L817.252,848.993z
			 M835.714,872.018l-3.813,21.749l-7.68,22.649l-17.186,35.986v-4.846c0,0-1.408-11.795,0.094-15.439
			c1.521-3.605,5.071-46.613,5.071-46.613l31.045-37.639L835.714,872.018z"/>
		<path fill="#DEE8E5" d="M1003.936,931.367l-22.16-62.879l-54.185-53.189l14.33,140.371l13.937,38.537l53.149,27.873l-13.953-32.98
			L1003.936,931.367z M974.901,977.606l-9.579-23.478l-10.742-14.16l2.517-27.871l-7.589-55.743l37.338,79.557L974.901,977.606z"/>
		<path fill="#DEE8E5" d="M719.891,869.952l64.326-23.964l58.689-38.84l15.326-42.07l14.255-7.25l-8.733,11.57l-10.499,34.443
			v22.539v3.793v0.714l14.819-23.665l8.132-33.092l3.136-18.293l3.551,14.687l6.836,9.091l4.583-5.484l14.687,20.997l3.324,17.468
			l17.467,8.602l5.333-26.069l-23.476-24.565l-9.466-7.588l43.366,23.402l10.516,13.71l14.969,24.716l20.416,21.447l51.761,38.163
			l7.438,27.759l24.34,28.623l-4.244-33.318l-10.687-49.77l-49.413-52.7l-52.737-34.219l-59.35-20.923l-0.957-14.049l-20.865-32.303
			l-5.222,30.387l-22.763,23.178l-7.531,17.053l-49.883,25.543l-55.535,17.841l-59.8,39.929l-23.532,57.996L719.891,869.952z
			 M982.094,797.795l27.27,26.595l27.064,23.702l18.199,33.016l-24.621-23.664l-28.605-14.498l-23.1-32.604l-16.133-15.213
			L982.094,797.795z M715.083,845.161l32.284-12.17l30.988-15.7l42.391-16.189l-23.402,19.269l-34.82,19.721l-36.679,16.264
			l-36.06,14.161L715.083,845.161z"/>
	</g>
	<g>
		<path fill="#E9D2BF" d="M675.746,641.861l-9.039,21.626l-2.904,18.732c0,0-5.314,32.392-6.973,34.514
			c-1.659,2.102-4.582,20.102-4.582,20.102l1.602,44.18l5.227,29.555l12.552,43.908l-0.511-16.63c0,0,6.027-37.079,6.799-39.837
			c0.782-2.778,10.225-28.032,10.225-28.032l7.36-34.514l-4.812-44.197L675.746,641.861z M677.512,748.467l-2.277,16.921
			l-6.848,30.134l-0.396,2.489l-3.802-15.452l1.623-8.586l-0.975-18.213l2.922-21.606l0.976-22.917l-0.976-12.483l6.821-31.503
			l4.553,16.126l0.656,17.442l3.24,20.043L677.512,748.467z"/>
		<path fill="#E9D2BF" d="M638.339,679.21l-8.132,7.042l-4.544,10.92l-1.292,19.522l-1.948,15.105l-8.45,6h-13.64l-23.411,4.4
			l28.494,7.677l19.611,0.135l13.312-9.877l9.761-19.005l7.129-21.605l2.729-32.431l-10.524,4.572L638.339,679.21z M647.819,691.036
			l-1.958,11.17l-3.943,11.634l-8.828,18.481v-2.489c0,0-0.722-6.057,0.05-7.929c0.78-1.853,2.604-23.941,2.604-23.941l15.944-19.33
			L647.819,691.036z"/>
		<path fill="#E9D2BF" d="M734.22,721.518l-11.383-32.296l-27.827-27.315L702.369,734l7.157,19.793l27.299,14.314l-7.167-16.937
			L734.22,721.518z M719.309,745.266l-4.921-12.058l-5.517-7.272l1.291-14.314l-3.896-28.629l19.175,40.858L719.309,745.266z"/>
		<path fill="#E9D2BF" d="M588.333,689.975l33.039-12.308l30.142-19.948l7.872-21.606l7.321-3.724l-4.485,5.941l-5.392,17.691
			v11.575v1.947v0.368l7.61-12.153l4.177-16.998l1.61-9.395l1.824,7.543l3.511,4.67l2.353-2.818l7.544,10.784l1.707,8.971
			l8.971,4.419l2.74-13.39l-12.058-12.617l-4.862-3.896l22.274,12.019l5.4,7.042l7.688,12.693l10.486,11.016l26.584,19.601
			l3.819,14.258l12.502,14.699l-2.181-17.112l-5.488-25.562l-25.379-27.067l-27.086-17.573l-30.481-10.747l-0.492-7.215
			l-10.717-16.592l-2.682,15.608l-11.691,11.904l-3.868,8.757l-25.619,13.118l-28.525,9.164l-30.712,20.508l-12.085,29.787
			L588.333,689.975z M723,652.914l14.008,13.66l13.899,12.173l9.348,16.959l-12.646-12.155l-14.69-7.447l-11.865-16.745
			l-8.287-7.813L723,652.914z M585.864,677.243l16.581-6.253l15.917-8.062l21.771-8.314l-12.018,9.897l-17.884,10.129l-18.838,8.353
			l-18.521,7.271L585.864,677.243z"/>
	</g>
	<g>
		<path fill="#E1E5CB" d="M1204.934,867.344l10.011-23.953l3.216-20.746c0,0,5.887-35.877,7.724-38.229
			c1.838-2.328,5.076-22.264,5.076-22.264l-1.774-48.932l-5.79-32.734l-13.899-48.631l0.565,18.418c0,0-6.678,41.068-7.531,44.123
			c-0.866,3.078-11.325,31.047-11.325,31.047l-8.151,38.227l5.331,48.953L1204.934,867.344z M1202.979,749.268l2.521-18.738
			l7.585-33.375l0.438-2.758l4.21,17.115l-1.795,9.508l1.078,20.172l-3.236,23.932l-1.08,25.385l1.08,13.824l-7.554,34.893
			l-5.042-17.863l-0.727-19.316l-3.591-22.201L1202.979,749.268z"/>
		<path fill="#E1E5CB" d="M1246.365,825.977l9.007-7.799l5.031-12.094l1.432-21.623l2.158-16.732l9.359-6.645h15.106l25.93-4.871
			l-31.56-8.504l-21.721-0.15l-14.743,10.941l-10.812,21.045l-7.895,23.932l-3.024,35.918l11.655-5.062L1246.365,825.977z
			 M1235.863,812.879l2.169-12.373l4.369-12.883l9.775-20.471v2.756c0,0,0.802,6.711-0.053,8.783
			c-0.865,2.051-2.885,26.516-2.885,26.516l-17.66,21.412L1235.863,812.879z"/>
		<path fill="#E1E5CB" d="M1140.169,779.117l12.607,35.77l30.822,30.256l-8.151-79.85l-7.929-21.922l-30.232-15.855l7.937,18.762
			L1140.169,779.117z M1156.687,752.814l5.449,13.355l6.11,8.055l-1.432,15.855l4.315,31.709l-21.238-45.256L1156.687,752.814z"/>
		<path fill="#E1E5CB" d="M1301.749,814.055l-36.592,13.631l-33.386,22.094l-8.718,23.932l-8.109,4.125l4.968-6.582l5.972-19.594
			v-12.82v-2.158v-0.406l-8.43,13.461l-4.626,18.826l-1.784,10.406l-2.02-8.355l-3.889-5.172l-2.605,3.121l-8.355-11.943
			l-1.891-9.938l-9.936-4.893l-3.034,14.83l13.354,13.973l5.385,4.316l-24.669-13.312l-5.982-7.799l-8.515-14.059l-11.613-12.201
			l-29.445-21.709l-4.23-15.791l-13.846-16.281l2.414,18.953l6.079,28.311l28.108,29.979l30,19.467l33.762,11.9l0.544,7.992
			l11.87,18.375l2.97-17.287l12.948-13.184l4.285-9.699l28.375-14.531l31.592-10.148l34.017-22.715l13.386-32.99L1301.749,814.055z
			 M1152.595,855.102l-15.514-15.129l-15.395-13.484l-10.353-18.781l14.007,13.461l16.271,8.248l13.142,18.549l9.177,8.654
			L1152.595,855.102z M1304.484,828.156l-18.364,6.924l-17.629,8.932l-24.113,9.209l13.312-10.963l19.807-11.217l20.865-9.252
			l20.512-8.057L1304.484,828.156z"/>
	</g>
	<g>
		<path fill="#E5DCE1" d="M1079.687,81.845l15.093-36.111l4.849-31.279c0,0,8.874-54.086,11.645-57.629
			c2.77-3.512,7.65-33.567,7.65-33.567l-2.674-73.77l-8.729-49.351l-20.954-73.317l0.853,27.768c0,0-10.066,61.915-11.354,66.521
			c-1.305,4.639-17.074,46.807-17.074,46.807l-12.289,57.63l8.037,73.801L1079.687,81.845z M1076.739-96.166l3.802-28.252
			l11.437-50.317l0.659-4.156l6.346,25.804l-2.706,14.334l1.627,30.41l-4.88,36.079l-1.627,38.27l1.627,20.843l-11.388,52.604
			l-7.602-26.931l-1.096-29.121l-5.412-33.471L1076.739-96.166z"/>
		<path fill="#E5DCE1" d="M1142.149,19.479l13.578-11.758l7.586-18.232l2.158-32.6l3.254-25.224l14.109-10.019h22.774l39.091-7.344
			l-47.578-12.821l-32.746-0.225l-22.227,16.494l-16.301,31.73l-11.902,36.079l-4.559,54.15l17.572-7.634L1142.149,19.479z
			 M1126.315-0.267l3.271-18.652l6.586-19.424l14.738-30.861v4.156c0,0,1.207,10.116-0.081,13.241
			c-1.304,3.092-4.349,39.976-4.349,39.976l-26.624,32.278L1126.315-0.267z"/>
		<path fill="#E5DCE1" d="M982.048-51.164l19.006,53.925l46.469,45.615l-12.29-120.382l-11.951-33.05l-45.582-23.903l11.967,28.283
			L982.048-51.164z M1006.949-90.819l8.215,20.134l9.212,12.144l-2.158,23.901l6.508,47.807l-32.021-68.229L1006.949-90.819z"/>
		<path fill="#E5DCE1" d="M1225.646,1.505l-55.165,20.553l-50.333,33.309l-13.143,36.078l-12.226,6.219l7.489-9.923l9.004-29.54
			V38.872v-3.253v-0.612l-12.709,20.295l-6.974,28.38L1088.9,99.37l-3.044-12.596l-5.863-7.795l-3.93,4.702l-12.596-18.007
			l-2.852-14.98l-14.979-7.377l-4.574,22.357l20.133,21.066l8.117,6.508l-37.19-20.069l-9.019-11.758l-12.837-21.196l-17.51-18.395
			l-44.389-32.729l-6.379-23.806L921.116-59.25l3.64,28.573l9.165,42.684l42.376,45.195l45.229,29.346l50.897,17.943l0.821,12.049
			l17.895,27.703l4.478-26.061l19.521-19.877l6.459-14.624l42.779-21.905l47.628-15.301l51.284-34.244l20.182-49.736L1225.646,1.505
			z M1000.78,63.387l-23.387-22.808l-23.21-20.326L938.576-8.062l21.115,20.293l24.531,12.436l19.811,27.961l13.836,13.047
			L1000.78,63.387z M1229.77,22.766l-27.687,10.437l-26.576,13.466l-36.354,13.884l20.068-16.525l29.863-16.912l31.455-13.947
			l30.926-12.145L1229.77,22.766z"/>
	</g>
	<g>
		<path fill="#DEE8E5" d="M1255.101,263.556l-17.599,42.107l-5.653,36.473c0,0-10.348,63.067-13.579,67.199
			c-3.229,4.094-8.921,39.14-8.921,39.14l3.118,86.018l10.179,57.545l24.434,85.491l-0.994-32.378c0,0,11.738-72.195,13.241-77.566
			c1.521-5.408,19.907-54.578,19.907-54.578l14.33-67.199l-9.371-86.055L1255.101,263.556z M1258.537,471.125l-4.433,32.943
			l-13.335,58.672l-0.77,4.846l-7.399-30.088l3.154-16.715l-1.896-35.459l5.69-42.069l1.897-44.625l-1.897-24.303l13.278-61.339
			l8.865,31.402l1.276,33.957l6.311,39.027L1258.537,471.125z"/>
		<path fill="#DEE8E5" d="M1182.267,336.277l-15.832,13.71l-8.846,21.26l-2.518,38.013l-3.793,29.412l-16.453,11.682h-26.557
			l-45.582,8.563l55.479,14.95l38.183,0.263l25.918-19.232l19.007-36.999l13.88-42.069l5.314-63.143l-20.49,8.902L1182.267,336.277z
			 M1200.729,359.301l-3.813,21.749l-7.68,22.65l-17.186,35.985v-4.846c0,0-1.408-11.795,0.094-15.439
			c1.521-3.606,5.071-46.614,5.071-46.614l31.045-37.638L1200.729,359.301z"/>
		<path fill="#DEE8E5" d="M1368.95,418.65l-22.16-62.879l-54.185-53.188l14.33,140.37l13.937,38.538l53.149,27.872l-13.953-32.979
			L1368.95,418.65z M1339.916,464.89l-9.579-23.478l-10.742-14.16l2.517-27.871l-7.589-55.743l37.338,79.557L1339.916,464.89z"/>
		<path fill="#DEE8E5" d="M1084.905,357.236l64.326-23.964l58.689-38.84l15.326-42.069l14.255-7.25l-8.733,11.57l-10.499,34.444
			v22.538v3.793v0.714l14.819-23.665l8.132-33.092l3.136-18.292l3.551,14.687l6.836,9.09l4.583-5.484l14.687,20.998l3.324,17.467
			l17.467,8.602l5.333-26.069l-23.476-24.565l-9.466-7.587l43.366,23.401l10.516,13.71l14.969,24.716l20.416,21.448l51.761,38.163
			l7.438,27.759l24.34,28.623l-4.244-33.318l-10.687-49.771l-49.413-52.7l-52.737-34.219l-59.35-20.922l-0.957-14.049
			l-20.865-32.303l-5.222,30.387l-22.763,23.177l-7.531,17.053l-49.883,25.543l-55.535,17.841l-59.8,39.929l-23.532,57.996
			L1084.905,357.236z M1347.108,285.079l27.27,26.594l27.064,23.702l18.199,33.017l-24.621-23.664l-28.605-14.499l-23.1-32.604
			l-16.133-15.213L1347.108,285.079z M1080.098,332.445l32.284-12.17l30.988-15.701l42.391-16.189l-23.402,19.269l-34.82,19.721
			l-36.679,16.264l-36.06,14.161L1080.098,332.445z"/>
	</g>
	<g>
		<path fill="#E9D2BF" d="M1156.239,122.362l-6.04,14.45l-1.94,12.517c0,0-3.551,21.643-4.659,23.061
			c-1.108,1.405-3.062,13.432-3.062,13.432l1.07,29.52l3.492,19.748l8.387,29.339l-0.342-11.112c0,0,4.027-24.776,4.543-26.619
			c0.522-1.856,6.832-18.73,6.832-18.73l4.918-23.061l-3.216-29.532L1156.239,122.362z M1157.419,193.595l-1.521,11.305
			l-4.576,20.135l-0.265,1.663l-2.54-10.326l1.084-5.736l-0.651-12.169l1.952-14.438l0.652-15.314l-0.652-8.34l4.558-21.05
			l3.042,10.776l0.438,11.653l2.165,13.394L1157.419,193.595z"/>
		<path fill="#E9D2BF" d="M1131.244,147.318l-5.434,4.705l-3.035,7.296l-0.864,13.045l-1.302,10.093l-5.646,4.009h-9.113
			l-15.643,2.939l19.039,5.13l13.104,0.09l8.895-6.6l6.522-12.698l4.764-14.437l1.823-21.669l-7.032,3.055L1131.244,147.318z
			 M1137.579,155.22l-1.309,7.464l-2.635,7.773l-5.897,12.349v-1.663c0,0-0.484-4.047,0.032-5.298
			c0.521-1.238,1.74-15.997,1.74-15.997l10.653-12.917L1137.579,155.22z"/>
		<path fill="#E9D2BF" d="M1195.31,175.587l-7.605-21.579l-18.594-18.253l4.917,48.172l4.782,13.226l18.24,9.565l-4.788-11.318
			L1195.31,175.587z M1185.347,191.455l-3.288-8.057l-3.687-4.859l0.863-9.565l-2.604-19.129l12.812,27.302L1185.347,191.455z"/>
		<path fill="#E9D2BF" d="M1097.832,154.511l22.074-8.224l20.142-13.329l5.26-14.437l4.892-2.488l-2.997,3.97l-3.603,11.821v7.734
			v1.302v0.245l5.085-8.121l2.791-11.357l1.076-6.277l1.219,5.04l2.346,3.12l1.572-1.882l5.041,7.206l1.141,5.994l5.994,2.952
			l1.83-8.946l-8.057-8.43l-3.248-2.604l14.883,8.031l3.608,4.705l5.137,8.482l7.007,7.36l17.763,13.097l2.552,9.526l8.354,9.822
			l-1.457-11.434l-3.667-17.08l-16.958-18.085l-18.098-11.743l-20.367-7.18l-0.328-4.821l-7.161-11.086l-1.792,10.428l-7.812,7.954
			l-2.585,5.852l-17.118,8.766l-19.059,6.123l-20.521,13.703l-8.076,19.903L1097.832,154.511z M1187.813,129.749l9.359,9.126
			l9.287,8.134l6.246,11.331l-8.449-8.121l-9.816-4.976l-7.928-11.189l-5.537-5.221L1187.813,129.749z M1096.182,146.003
			l11.08-4.177l10.634-5.388l14.547-5.556l-8.03,6.613l-11.949,6.768l-12.588,5.582l-12.375,4.859L1096.182,146.003z"/>
	</g>
	<g>
		<path fill="#E1E5CB" d="M1337.265,207.576l10.011-23.953l3.216-20.747c0,0,5.887-35.876,7.724-38.228
			c1.838-2.328,5.076-22.264,5.076-22.264l-1.774-48.932l-5.79-32.734l-13.899-48.632l0.565,18.418c0,0-6.678,41.068-7.531,44.124
			c-0.866,3.078-11.325,31.047-11.325,31.047l-8.151,38.227l5.331,48.952L1337.265,207.576z M1335.311,89.5l2.521-18.739
			l7.585-33.375l0.438-2.757l4.21,17.115l-1.795,9.508l1.078,20.172l-3.236,23.932l-1.08,25.384l1.08,13.825l-7.554,34.893
			l-5.042-17.863l-0.727-19.316l-3.591-22.201L1335.311,89.5z"/>
		<path fill="#E1E5CB" d="M1378.696,166.209l9.007-7.799l5.031-12.094l1.432-21.624l2.158-16.731l9.359-6.645h15.106l25.93-4.871
			l-31.56-8.505l-21.721-0.149l-14.743,10.94l-10.812,21.046l-7.895,23.932l-3.024,35.918l11.655-5.063L1378.696,166.209z
			 M1368.194,153.111l2.169-12.373l4.369-12.884l9.775-20.47v2.756c0,0,0.802,6.711-0.053,8.783
			c-0.865,2.051-2.885,26.516-2.885,26.516l-17.66,21.411L1368.194,153.111z"/>
		<path fill="#E1E5CB" d="M1272.5,119.35l12.607,35.77l30.822,30.256l-8.151-79.85l-7.929-21.922l-30.232-15.855l7.937,18.761
			L1272.5,119.35z M1289.018,93.047l5.449,13.355l6.11,8.055l-1.432,15.854l4.315,31.71l-21.238-45.256L1289.018,93.047z"/>
		<path fill="#E1E5CB" d="M1434.08,154.286l-36.592,13.632l-33.386,22.094l-8.718,23.932l-8.109,4.125l4.968-6.582l5.972-19.594
			v-12.82v-2.159v-0.405l-8.43,13.461l-4.626,18.825l-1.784,10.406l-2.02-8.354l-3.889-5.172l-2.605,3.12l-8.355-11.943
			l-1.891-9.937l-9.936-4.894l-3.034,14.83L1325,210.824l5.385,4.316l-24.669-13.312l-5.982-7.799l-8.515-14.06l-11.613-12.201
			l-29.445-21.708l-4.23-15.791l-13.846-16.282l2.414,18.953l6.079,28.312l28.108,29.979l30,19.466l33.762,11.901l0.544,7.991
			l11.87,18.376l2.97-17.287l12.948-13.184l4.285-9.7l28.375-14.53l31.592-10.148l34.017-22.715l13.386-32.99L1434.08,154.286z
			 M1284.926,195.333l-15.514-15.129l-15.395-13.483l-10.353-18.781l14.007,13.461l16.271,8.248l13.142,18.548l9.177,8.654
			L1284.926,195.333z M1436.815,168.389l-18.364,6.923l-17.629,8.932l-24.113,9.21l13.312-10.963l19.807-11.218l20.865-9.251
			l20.512-8.057L1436.815,168.389z"/>
	</g>
	<g>
		<path fill="#E1E5CB" d="M91.464,1029.985l10.011-23.953l3.216-20.746c0,0,5.887-35.877,7.724-38.229
			c1.838-2.328,5.076-22.264,5.076-22.264l-1.774-48.932l-5.79-32.734l-13.899-48.631l0.565,18.418c0,0-6.678,41.068-7.531,44.123
			c-0.866,3.078-11.325,31.047-11.325,31.047l-8.151,38.227l5.331,48.953L91.464,1029.985z M89.51,911.909l2.521-18.738
			l7.585-33.375l0.438-2.758l4.21,17.115l-1.795,9.508l1.078,20.172l-3.236,23.932l-1.08,25.385l1.08,13.824l-7.554,34.893
			l-5.042-17.863l-0.727-19.316l-3.591-22.201L89.51,911.909z"/>
		<path fill="#E1E5CB" d="M132.896,988.618l9.007-7.799l5.031-12.094l1.432-21.623l2.158-16.732l9.359-6.645h15.106l25.93-4.871
			l-31.56-8.504l-21.721-0.15l-14.743,10.941l-10.812,21.045l-7.895,23.932l-3.024,35.918l11.655-5.062L132.896,988.618z
			 M122.394,975.521l2.169-12.373l4.369-12.883l9.775-20.471v2.756c0,0,0.802,6.711-0.053,8.783
			c-0.865,2.051-2.885,26.516-2.885,26.516l-17.66,21.412L122.394,975.521z"/>
		<path fill="#E1E5CB" d="M26.699,941.759l12.607,35.77l30.822,30.256l-8.151-79.85l-7.929-21.922l-30.232-15.855l7.937,18.762
			L26.699,941.759z M43.217,915.456l5.449,13.355l6.11,8.055l-1.432,15.855l4.315,31.709l-21.238-45.256L43.217,915.456z"/>
		<path fill="#E1E5CB" d="M188.279,976.696l-36.592,13.631l-33.386,22.094l-8.718,23.932l-8.109,4.125l4.968-6.582l5.972-19.594
			v-12.82v-2.158v-0.406l-8.43,13.461l-4.626,18.826l-1.784,10.406l-2.02-8.355l-3.889-5.172l-2.605,3.121l-8.355-11.943
			l-1.891-9.938l-9.936-4.893l-3.034,14.83l13.354,13.973l5.385,4.316l-24.669-13.312l-5.982-7.799l-8.515-14.059l-11.613-12.201
			L4.359,968.47l-4.23-15.791l-13.846-16.281l2.414,18.953l6.079,28.311l28.108,29.979l30,19.467l33.762,11.9l0.544,7.992
			l11.87,18.375l2.97-17.287l12.948-13.184l4.285-9.699l28.375-14.531l31.592-10.148l34.017-22.715l13.386-32.99L188.279,976.696z
			 M39.125,1017.743l-15.514-15.129L8.217,989.13l-10.353-18.781l14.007,13.461l16.271,8.248l13.142,18.549l9.177,8.654
			L39.125,1017.743z M191.015,990.798l-18.364,6.924l-17.629,8.932l-24.113,9.209l13.312-10.963l19.807-11.217l20.865-9.252
			l20.512-8.057L191.015,990.798z"/>
	</g>
	<g>
		<path fill="#E9D2BF" d="M1311.522,877.592l-9.04,21.626l-2.903,18.732c0,0-5.314,32.393-6.974,34.515
			c-1.658,2.102-4.582,20.102-4.582,20.102l1.603,44.18l5.227,29.555l12.552,43.909l-0.512-16.631c0,0,6.027-37.079,6.799-39.837
			c0.782-2.778,10.225-28.032,10.225-28.032l7.36-34.515l-4.812-44.196L1311.522,877.592z M1313.288,984.199l-2.277,16.92
			l-6.849,30.134l-0.396,2.489l-3.801-15.453l1.622-8.585l-0.975-18.212l2.921-21.607l0.977-22.918l-0.977-12.483l6.821-31.503
			l4.553,16.126l0.656,17.442l3.24,20.043L1313.288,984.199z"/>
		<path fill="#E9D2BF" d="M1274.114,914.941l-8.132,7.041l-4.544,10.92l-1.292,19.522l-1.948,15.105l-8.45,6.001h-13.639
			l-23.411,4.399l28.494,7.677l19.61,0.137l13.312-9.879l9.762-19.004l7.13-21.606l2.729-32.43l-10.524,4.571L1274.114,914.941z
			 M1283.596,926.767l-1.959,11.171l-3.943,11.633l-8.827,18.481v-2.489c0,0-0.722-6.057,0.05-7.929
			c0.78-1.852,2.604-23.941,2.604-23.941l15.943-19.33L1283.596,926.767z"/>
		<path fill="#E9D2BF" d="M1369.995,957.248l-11.382-32.295l-27.828-27.316l7.359,72.095l7.156,19.792l27.299,14.315l-7.166-16.938
			L1369.995,957.248z M1355.085,980.996l-4.921-12.057l-5.518-7.273l1.292-14.313l-3.896-28.63l19.176,40.859L1355.085,980.996z"/>
		<path fill="#E9D2BF" d="M1224.108,925.705l33.039-12.308l30.143-19.948l7.872-21.605l7.32-3.725l-4.485,5.941l-5.392,17.692
			v11.575v1.946v0.368l7.61-12.153l4.177-16.998l1.611-9.395l1.824,7.543l3.51,4.669l2.354-2.817l7.545,10.784l1.707,8.972
			l8.971,4.418l2.738-13.39l-12.058-12.617l-4.86-3.896l22.273,12.02l5.4,7.042l7.688,12.693l10.486,11.016l26.584,19.601
			l3.819,14.258l12.502,14.699l-2.181-17.111l-5.488-25.562l-25.38-27.067l-27.085-17.573l-30.481-10.746l-0.491-7.216
			l-10.717-16.592l-2.683,15.608l-11.69,11.903l-3.869,8.758l-25.619,13.119l-28.524,9.163l-30.713,20.509l-12.085,29.786
			L1224.108,925.705z M1358.776,888.646l14.008,13.659l13.899,12.173l9.348,16.958l-12.646-12.153l-14.691-7.448l-11.864-16.745
			l-8.287-7.813L1358.776,888.646z M1221.64,912.974l16.581-6.252l15.916-8.063l21.771-8.314l-12.019,9.897l-17.885,10.128
			l-18.838,8.354l-18.521,7.272L1221.64,912.974z"/>
	</g>
	<g>
		<path fill="#E5DCE1" d="M1103.43,1189.729l15.093-36.111l4.849-31.279c0,0,8.874-54.086,11.645-57.629
			c2.77-3.512,7.65-33.566,7.65-33.566l-2.674-73.769l-8.729-49.352l-20.954-73.316l0.853,27.768c0,0-10.066,61.914-11.354,66.52
			c-1.305,4.639-17.074,46.809-17.074,46.809l-12.289,57.628l8.037,73.801L1103.43,1189.729z M1100.482,1011.72l3.802-28.252
			l11.437-50.317l0.659-4.156l6.346,25.805l-2.706,14.334l1.627,30.409l-4.88,36.08l-1.627,38.27l1.627,20.842l-11.388,52.605
			l-7.602-26.932l-1.096-29.121l-5.412-33.471L1100.482,1011.72z"/>
		<path fill="#E5DCE1" d="M1165.893,1127.364l13.578-11.758l7.586-18.232l2.158-32.6l3.254-25.223l14.109-10.02h22.774l39.091-7.344
			l-47.578-12.82l-32.746-0.227l-22.227,16.494l-16.301,31.73l-11.902,36.078l-4.559,54.15l17.572-7.633L1165.893,1127.364z
			 M1150.059,1107.618l3.271-18.652l6.586-19.424l14.738-30.861v4.156c0,0,1.207,10.115-0.081,13.24
			c-1.304,3.092-4.349,39.977-4.349,39.977l-26.624,32.277L1150.059,1107.618z"/>
		<path fill="#E5DCE1" d="M1005.791,1056.722l19.006,53.924l46.469,45.615l-12.29-120.381l-11.951-33.051l-45.581-23.903
			l11.966,28.282L1005.791,1056.722z M1030.691,1017.065l8.215,20.135l9.213,12.145l-2.158,23.9l6.508,47.807l-32.021-68.229
			L1030.691,1017.065z"/>
		<path fill="#E5DCE1" d="M1249.389,1109.39l-55.165,20.553l-50.333,33.309l-13.143,36.078l-12.226,6.219l7.489-9.922l9.004-29.541
			v-19.328v-3.252v-0.613l-12.709,20.295l-6.974,28.381l-2.689,15.688l-3.044-12.596l-5.863-7.795l-3.93,4.703l-12.596-18.008
			l-2.852-14.98l-14.979-7.377l-4.574,22.357l20.133,21.066l8.117,6.508l-37.189-20.068l-9.02-11.758l-12.838-21.197l-17.508-18.395
			l-44.391-32.729l-6.378-23.805l-20.874-24.547l3.64,28.572l9.165,42.684l42.377,45.195l45.228,29.346l50.897,17.943l0.821,12.049
			l17.895,27.703l4.478-26.061l19.521-19.877l6.459-14.623l42.779-21.906l47.628-15.301l51.284-34.244l20.182-49.736
			L1249.389,1109.39z M1024.523,1171.272l-23.387-22.809l-23.21-20.326l-15.608-28.314l21.116,20.293l24.53,12.436l19.812,27.961
			l13.835,13.047L1024.523,1171.272z M1253.513,1130.651l-27.687,10.436l-26.576,13.467l-36.354,13.883l20.068-16.525l29.863-16.912
			l31.455-13.947l30.926-12.145L1253.513,1130.651z"/>
	</g>
	<g>
		<path fill="#E1E5CB" d="M250.419,125.787l10.011-23.953l3.216-20.746c0,0,5.887-35.877,7.724-38.229
			c1.838-2.328,5.076-22.264,5.076-22.264l-1.774-48.932l-5.79-32.734l-13.899-48.631l0.565,18.418c0,0-6.678,41.068-7.531,44.123
			c-0.866,3.078-11.325,31.047-11.325,31.047l-8.151,38.227l5.331,48.953L250.419,125.787z M248.465,7.711l2.521-18.738
			l7.585-33.375l0.438-2.758l4.21,17.115l-1.795,9.508l1.078,20.172l-3.236,23.932l-1.08,25.385l1.08,13.824l-7.554,34.892
			l-5.042-17.863l-0.727-19.316l-3.591-22.201L248.465,7.711z"/>
		<path fill="#E1E5CB" d="M291.851,84.419l9.007-7.798l5.031-12.094l1.432-21.623l2.158-16.732l9.359-6.645h15.106l25.93-4.871
			l-31.56-8.504l-21.721-0.15l-14.743,10.941L281.04,37.988l-7.895,23.932l-3.024,35.917l11.655-5.062L291.851,84.419z
			 M281.349,71.322l2.169-12.373l4.369-12.883l9.775-20.471v2.756c0,0,0.802,6.711-0.053,8.783
			c-0.865,2.051-2.885,26.516-2.885,26.516l-17.66,21.412L281.349,71.322z"/>
		<path fill="#E1E5CB" d="M185.655,37.561l12.607,35.77l30.822,30.255l-8.151-79.849l-7.929-21.922l-30.232-15.855l7.937,18.762
			L185.655,37.561z M202.172,11.258l5.449,13.355l6.11,8.055L212.3,48.523l4.315,31.709l-21.238-45.256L202.172,11.258z"/>
		<path fill="#E1E5CB" d="M347.235,72.498l-36.592,13.63l-33.386,22.094l-8.718,23.932l-8.109,4.125l4.968-6.582l5.972-19.594
			v-12.82v-2.158v-0.406l-8.43,13.461l-4.626,18.826l-1.784,10.406l-2.02-8.355l-3.889-5.172l-2.605,3.121l-8.355-11.943
			l-1.891-9.938l-9.936-4.893l-3.034,14.83l13.354,13.973l5.385,4.316l-24.669-13.312l-5.982-7.799l-8.515-14.059L192.76,85.98
			l-29.445-21.708l-4.23-15.791l-13.846-16.281l2.414,18.953l6.079,28.311l28.108,29.978l30,19.467l33.762,11.9l0.544,7.992
			l11.87,18.375l2.97-17.287l12.948-13.184l4.285-9.699l28.375-14.531l31.592-10.148l34.017-22.714l13.386-32.99L347.235,72.498z
			 M198.081,113.544l-15.514-15.129l-15.395-13.484L156.82,66.15l14.007,13.461l16.271,8.248l13.142,18.549l9.177,8.654
			L198.081,113.544z M349.97,86.599l-18.364,6.924l-17.629,8.932l-24.113,9.209l13.312-10.963l19.807-11.217l20.865-9.251
			l20.512-8.057L349.97,86.599z"/>
	</g>
</g>
<g id="Layer_2">
</g>
</svg>
