<?xml version="1.0" encoding="utf-8"?>
<!-- Generator: Adobe Illustrator 15.0.0, SVG Export Plug-In . SVG Version: 6.00 Build 0)  -->
<!DOCTYPE svg PUBLIC "-//W3C//DTD SVG 1.1//EN" "http://www.w3.org/Graphics/SVG/1.1/DTD/svg11.dtd">
<svg version="1.1" id="Layer_1" xmlns="http://www.w3.org/2000/svg" xmlns:xlink="http://www.w3.org/1999/xlink" x="0px" y="0px"
	 width="500px" height="100px" viewBox="0 0 500 100" enable-background="new 0 0 500 100" xml:space="preserve">
<text transform="matrix(1 0 0 1 20.7012 73.1846)" fill="#6D6E71" font-family="'LetterGothicStd-BoldSlanted'" font-size="72" letter-spacing="-5">hide</text>
<g>
	<path fill="#FAB698" d="M224.83,36.092c2.638-2.292,5.114-4.741,7.261-7.395c1.083-1.313,2.075-2.687,2.898-4.118
		c0.208-0.357,0.396-0.719,0.585-1.082c0.17-0.336,0.338-0.703,0.488-1.069c0.298-0.736,0.562-1.49,0.76-2.263
		c0.4-1.542,0.593-3.141,0.523-4.672c-0.066-1.523-0.421-3.004-1.097-4.048c-0.687-1.041-1.546-1.586-2.743-1.73
		c-0.297-0.036-0.611-0.048-0.938-0.032l-0.613,0.028l-0.589,0.04c-0.799,0.061-1.573,0.162-2.313,0.31
		c-1.481,0.299-2.795,0.817-3.991,1.604c-1.201,0.778-2.285,1.838-3.33,3.018c-1.049,1.169-1.828,2.337-2.377,3.664
		c-0.554,1.328-0.891,2.779-1.048,4.289c-0.312,3.032,0.104,6.251,0.815,9.43c0.712,3.189,1.78,6.358,3.043,9.463
		c1.271,3.116,2.727,6.136,4.352,9.154c1.598,3.041,3.235,6.062,4.961,9.005c1.701,2.959,3.525,5.826,5.435,8.583
		c1.92,2.74,3.998,5.359,6.338,7.5c1.17,1.063,2.406,1.993,3.673,2.693c0.318,0.171,0.638,0.331,0.96,0.466l0.242,0.098
		c0.028,0.013,0.107,0.042,0.095,0.04l0.154,0.056l0.598,0.211c0.699,0.242,1.492,0.471,2.246,0.64
		c3.058,0.674,6.249,0.668,9.295-0.243c3.028-0.928,5.905-2.656,8.3-4.996c2.419-2.317,4.414-5.172,5.825-8.374
		c-0.633,3.453-2.15,6.788-4.322,9.698c-2.193,2.881-5.1,5.395-8.612,6.885c-1.744,0.752-3.61,1.271-5.521,1.518
		c-1.91,0.243-3.853,0.189-5.748-0.069c-0.959-0.135-1.861-0.31-2.832-0.557l-0.65-0.171l-0.158-0.042l-0.214-0.066l-0.373-0.12
		c-0.495-0.165-0.971-0.358-1.436-0.566c-1.86-0.834-3.47-1.96-4.925-3.176c-2.909-2.443-5.291-5.229-7.491-8.088
		c-2.199-2.862-4.119-5.872-5.973-8.896c-1.823-3.045-3.538-6.126-5.173-9.248c-1.633-3.131-3.178-6.402-4.496-9.748
		c-1.321-3.354-2.454-6.815-3.221-10.43c-0.747-3.611-1.105-7.411-0.595-11.307c0.267-1.941,0.778-3.904,1.63-5.763
		c0.427-0.928,0.938-1.826,1.529-2.67c0.138-0.207,0.316-0.437,0.482-0.656c0.176-0.233,0.287-0.354,0.434-0.536
		c0.367-0.434,0.636-0.73,0.973-1.097c1.291-1.394,2.801-2.708,4.576-3.746c1.769-1.044,3.796-1.705,5.744-1.986
		c0.976-0.145,1.937-0.216,2.875-0.239l0.715-0.012l0.691,0.005c0.542,0.008,1.1,0.06,1.661,0.165
		c1.119,0.206,2.273,0.652,3.251,1.373c0.983,0.71,1.757,1.661,2.27,2.657c1.036,2.008,1.256,4.082,1.198,6.021
		c-0.072,1.95-0.464,3.82-1.082,5.605c-0.313,0.89-0.679,1.763-1.129,2.598c-0.225,0.419-0.461,0.823-0.73,1.239
		c-0.25,0.389-0.533,0.758-0.812,1.123c-1.129,1.451-2.383,2.751-3.698,3.959C230.805,32.385,227.918,34.432,224.83,36.092z"/>
</g>
<g>
	<g>
		<path fill="#FAB698" d="M214.655,39.764c-5.112,3.502-8.773,9.777-11.713,15.064c-4.042,7.271-7.379,16.686-3.719,24.732
			c3.26,7.166,12.047,8.033,18.818,6.479c8.805-2.021,13.629-7.357,20.082-13.086c1.318-1.171-1.142-1.485-1.8-1.449
			c-1.724,0.095-3.588,0.658-4.896,1.818c-4.714,4.186-8.784,10.237-15.815,10.126c-7.167-0.113-10.557-6.956-10.646-13.252
			c-0.091-6.532,3.237-13.157,6.43-18.657c2.229-3.84,5.182-8.724,8.947-11.303C223.489,38.082,216.092,38.78,214.655,39.764
			L214.655,39.764z"/>
	</g>
</g>
<path fill="#FAB698" d="M249.268,61.112c0,3.32,2.697,6.011,6.015,6.011c3.32,0,6.021-2.69,6.021-6.011
	c0-3.321-2.7-6.016-6.021-6.016C251.965,55.097,249.268,57.791,249.268,61.112z"/>
<text transform="matrix(1 0 0 1 278.2051 72.5977)" fill="#6D6E71" font-family="'LetterGothicStd-BoldSlanted'" font-size="72" letter-spacing="-5">cheek</text>
</svg>
