<?xml version="1.0" encoding="utf-8"?>
<!-- Generator: Adobe Illustrator 15.0.0, SVG Export Plug-In . SVG Version: 6.00 Build 0)  -->
<!DOCTYPE svg PUBLIC "-//W3C//DTD SVG 1.1//EN" "http://www.w3.org/Graphics/SVG/1.1/DTD/svg11.dtd">
<svg id="doll" version="1.1" xmlns="http://www.w3.org/2000/svg" xmlns:xlink="http://www.w3.org/1999/xlink" x="0px" y="0px" width="800px"
	 height="800px" viewBox="100 -200 400 400" enable-background="new 100 -200 400 400" xml:space="preserve">
<g id="body">
	<g id="Layer_1_2_">
		
		<path fill="none" stroke="#000000" stroke-miterlimit="10" d="M352.8-110.5c4.9,29.3,13,57,12.5,68.9c-0.2,5,0.7,30.3,1.7,37.2
			c1.7,11.9,5.7,21.8,8.5,31.4c2.7,9.5,6.5,24.7,9.9,35.8"/>
		<path fill="none" stroke="#000000" stroke-miterlimit="10" d="M352.4-164.9c-1.8,9.4-3.2,17.2-3.2,21.1
			c0.3,10.8,1.7,22.1,3.6,33.2"/>
		<path fill="none" stroke="#000000" stroke-miterlimit="10" d="M356.6-186.5c-1.3,7.3-2.9,14.9-4.2,21.6"/>
		<path fill="none" stroke="#000000" stroke-miterlimit="10" d="M358.8-228.4c0.3,5.9,1.8,15.4-0.2,29.8c-0.6,3.9-1.2,7.9-2,12.1"/>
		<path fill="none" stroke="#000000" stroke-miterlimit="10" d="M393.5-112.2c-0.2,3.8-0.4,7.7-0.4,13c0,9.6-2.5,31.8-0.6,41.9
			c2.9,15.4,1.6,13.4,2,22c0.3,5.5-2,13.8,1,24.2c3.2,10.8,2,24.7,2.2,32.4c0.1,7.8-0.8,16.7-0.6,23.8c0.2,6.2,0.2,12.3,0.8,18.7"/>
		<path fill="none" stroke="#000000" stroke-miterlimit="10" d="M393.6-128.3c0.3,6.6,0.1,11.1-0.1,16.1"/>
		<path fill="none" stroke="#000000" stroke-miterlimit="10" d="M396.8-112.9c0.9,6.3,1.7,13.3,2.5,19.7c1.3,9.6,4,21.8,5.4,31.3
			c1.4,9.8,0.1,19.4,0.3,24.5c0.3,6.6,2.1,14.6,1,24.9c-1.6,14-3.2,13.3-3.2,22c0,13.4,5.5,36.9,5.5,50.4"/>
		<path fill="none" stroke="#000000" stroke-miterlimit="10" d="M393.8-128.6c1.1,3.3,2.1,9.1,3,15.7"/>
		<path fill="none" stroke="#000000" stroke-miterlimit="10" d="M440.1-114c-1,18.5-3.4,26.7-4.9,47.6c-0.6,8.2,0.5,25.4,0.4,34.6
			c0,5.1-2,7.6-2.6,17.3c-0.6,9.9-0.3,19.2-0.9,25.1c-1.3,20-9.1,44.4-10.9,63.4"/>
		<path fill="none" stroke="#000000" stroke-miterlimit="10" d="M433.9-163.4c3.5,17.9,6.8,34.7,6.5,42.6c-0.1,2.5-0.2,4.8-0.3,6.9"
			/>
		<path fill="none" stroke="#000000" stroke-miterlimit="10" d="M429.7-184.8c1.3,7,2.8,14.3,4.1,21.4"/>
		<path fill="none" stroke="#000000" stroke-miterlimit="10" d="M427.3-228c0,7.6-2.4,14.6,0,29.7c0.7,4.2,1.5,8.8,2.4,13.4"/>
		<path fill="none" stroke="#000000" stroke-miterlimit="10" d="M440.4-228.4c0,26.9,4.8,62.6,8.7,88.8c0.4,3.7-0.6,4.9,0.4,11.3
			c1.2,7.9,4.1,13.9,3.8,17.3c-0.3,5.4-4.9,21.7-6.8,21.5c-2.3-0.3-0.6-5.7,0.4-10.7c0.6-3.2,1.2-5.1,1.2-7.4"/>
		<ellipse fill="none" stroke="#000000" stroke-miterlimit="10" cx="392.3" cy="-184" rx="0.9" ry="2.5"/>
		<path fill="none" stroke="#000000" stroke-miterlimit="10" d="M436-165.1"/>
		<path fill="none" stroke="#000000" stroke-miterlimit="10" d="M344.9-228.4c-3.8,42.3,0,46.2-5.3,86.4c-0.7,5.5,0.1,10.8-0.7,13.7
			c-1,3.2-4.1,13.6-3.4,15.1c1,2.1,1.6,10.4,3.7,12.4c3.4,3.2,8.7,6.5,9.4,5.4c1.3-2-5.2-6.3-6.5-8c-0.9-1.2-0.6-0.9-0.9-2.7"/>
		<path fill="none" stroke="#000000" stroke-miterlimit="10" d="M349.5-147.6c-0.8,5.5-3.5,15.6-3.9,19.7c-0.4,3.6,1,4.4,0.5,7.8
			c-0.2,1.4-0.7,2.9-0.9,4.3s0.6,3.6,0.4,4.9c-0.7,3-0.4,5.3-3.3,5.1c-1.5,0-2-2.5-2.3-5.4c-0.1-1.4,0.7-2.7,0.6-4
			c0-1.6-0.4-3.5-0.6-4.3"/>
		<path fill="none" stroke="#000000" stroke-miterlimit="10" d="M438.2-142c0.9,2.6,2,6.5,2.7,10.3c0.4,2.5,1.4,4,1.7,6.1
			c0.3,2.4-0.3,5.3-0.1,6.3c0.3,1.6,1.1,2.8,1.3,4.5c0.2,1.9-0.6,2.9-0.2,4.8c0.6,2.8,0.3,4.9,2.7,5.1c1.6,0.1,2.5-4.2,2.4-6.4
			c-0.1-1.3-0.6-6-0.6-7"/>
		<path fill="none" stroke="#000000" stroke-miterlimit="10" d="M347.8-98.1c0.3,0.1,1.3,1.4,1.8,1.2c1.7-1.6-5.4-7.8-6-8.9"/>
		<path fill="none" stroke="#000000" stroke-miterlimit="10" d="M349-99.2c3.4-0.5-2.5-6-4.1-8.2"/>
		<path fill="none" stroke="#000000" stroke-miterlimit="10" d="M348.5-103.7c1.6-1.8-2-4.3-3.3-5.7"/>
		<path fill="none" stroke="#000000" stroke-miterlimit="10" d="M446.2-96.9c-0.9,1.5-3.3,5-3.9,3.2c-1.3-2.9,3.5-6.6,5.4-9.8"/>
		<path fill="none" stroke="#000000" stroke-miterlimit="10" d="M447.4-102.9c-2,1.7-5.6,5.9-6.4,3.5c-0.7-1.5,2.1-4.3,4.1-6.1"/>
		<path fill="none" stroke="#000000" stroke-miterlimit="10" d="M444.5-105.8c-3.1,1.2-3.5-1.2-0.7-2.5"/>
		<path fill="none" stroke="#000000" stroke-miterlimit="10" d="M408.3,60c0,4,1.4,16.8,0,20.5c-1.4,4-1.7,2.6-2.3,7.2
			c-0.8,6,5.1,5.5,8.6,6c0,0,3.2-0.5,3.8-0.4c4.7,0.9,8.6,9,13,13c0.5,0.5,1.4,1.8,2.6,2c1.3,0.3,2.9,4.1,7.1,3.2
			c2.1-0.4,1.1-2.3,0.5-3.7c-0.6-1.4-3.2-2.7-3.8-3.3"/>
		<path fill="none" stroke="#000000" stroke-miterlimit="10" d="M421.3,73.9c0,4.5-0.9,4.7,0.6,6.8c1.5,2.2,2.4,4.2,6.5,7.3
			c5.7,4,15.6,9.4,16.4,10.8c0.7,1.7-0.2,2-1.3,1.2"/>
		<path fill="none" stroke="#000000" stroke-miterlimit="10" d="M441.4,107.7c0.7,0.7,3.2-0.3,2.2-1.5c-1-1.1-2.3-1.8-3.5-2.8"/>
		<path fill="none" stroke="#000000" stroke-miterlimit="10" d="M442.3,105.2c1.9,1.1,2.8,1.1,2.6-0.4c-0.1-1.4-2-2.3-3.7-3.7"/>
		<path fill="none" stroke="#000000" stroke-miterlimit="10" d="M444.4,103.7c1.5,0.5,0.6-2.1,0.6-2c-0.3-0.6-0.5-0.7-1.1-1.1
			c-0.8-0.6-1.4-1.7-2.4-2"/>
		<path fill="none" stroke="#000000" stroke-miterlimit="10" d="M397.9,63.8c0.9,6.9,4.1,10.2,3.7,15.4c-0.2,2.7-6.4,6-8,7.6
			c-2.2,2.2-3,2.5-4.1,6.3c-0.9,2.9-2.7,7.2-5.6,8.6c-2.6,1.3-2.3,1.8-3.7,2.6c-0.6,0.3-0.8,1.5-1.6,2.4c-1.3,1.4-3.4,1.6-5.4,0.9
			c-1.6-0.6-1.4-2.1-1-3c1-2.3,3.5-2.6,4.5-3.5c0.6-0.6,1.9-2.3,2.5-3.1"/>
		<path fill="none" stroke="#000000" stroke-miterlimit="10" d="M385.5,62.5c0.9,4.2,2.2,6.6,2.2,9c0,3.7-2.6,4.1-4.5,7.3
			c-1.3,2.2-4.3,6.6-6,8.5c-2.2,2.5-2.6,3.3-5,5.7c-1.9,2-3.4,2-3.7,3.9c0.2,0.6,1.1,0.5,2,0"/>
		<path fill="none" stroke="#000000" stroke-miterlimit="10" d="M374.3,102.3c-1,0.8-3.1,2-3.5,0.5c-0.3-1.5,3.9-3.9,4.8-4.7"/>
		<path fill="none" stroke="#000000" stroke-miterlimit="10" d="M372.2,100.7c-1.4,1.2-2.6,0.5-2.2-0.6c0.6-1.4,2.6-2.3,3.9-3.1"/>
		<path fill="none" stroke="#000000" stroke-miterlimit="10" d="M370.5,99.4c-1.1,0.3-2,0.3-1.5-0.8c0.5-1.1,2.3-2.3,3.4-2.9"/>
	</g>
</g>
<g id="low-waist">
	<g>
		<path id="lowWaist" visibility="hidden" fill="#FFFFFF" stroke="#000000" stroke-miterlimit="10" d="M352.7-164.7c12.8,6.4,24.1,8.6,38.9,9.3
			c16.7,0.6,27-2.9,42.3-8.1l0,0h0h0c3.5,17.9,6.8,34.7,6.5,42.6c0,2.5-0.1,4.7-0.3,6.9c-1,18.5-3.4,26.7-4.9,47.6
			c-0.6,8.2,0.5,25.4,0.4,34.6c0,5.1-2,7.6-2.6,17.3c-0.6,9.9-0.3,19.2-0.9,25.1c-0.6,8.2-2.2,17-4,25.9h0.2
			c-6.4,3.8-19.8,3.5-22.4,1.6h0c-1.5-10.3-3.2-20.9-3.2-28.4c0-8.8,1.7-8,3.2-22c1.1-10.4-0.6-18.3-1-24.9
			c-0.2-5.2,1.1-14.7-0.3-24.5c-1.4-9.5-4.1-21.7-5.4-31.3c-0.9-6.4-1.7-13.4-2.5-19.7l0,0c-0.9-6.7-1.9-12.4-3-15.7l-0.3,0.3
			c0.3,6.6-0.1,16.1-0.1,16.1h0c-0.2,3.8-0.4,7.7-0.4,13c0,9.6-2.5,31.8-0.6,41.9c2.9,15.4,1.6,13.4,2,22c0.3,5.5-2,13.8,1,24.2
			c3.2,10.8,2,24.7,2.2,32.4c0.1,5.2-0.3,11-0.5,16.3h0.1c-1,1.4-11.1,4.3-18.6,0.6h0c-1.1-4.1-2.2-8-3.1-11.2
			c-2.8-9.6-6.8-19.5-8.5-31.4c-1-6.9-1.9-32.2-1.7-37.2c0.4-11.9-7.6-39.6-12.5-68.9l0.3,0l-0.3,0c-1.9-11.1-3.3-22.4-3.6-33.2
			c-0.1-3.9,1.3-11.8,3.2-21.1L352.7-164.7l-0.3-0.2"/>
	</g>
</g>
<g id="high-waist">
	<g>
		<path id="highWaist" visibility="visible" fill="#FFFFFF" stroke="#000000" stroke-miterlimit="10" d="M428.2,36.4c1.8-8.9,3.4-17.7,4-25.9c0.5-5.9,0.3-15.1,0.9-25.1
			c0.6-9.6,2.5-12.1,2.6-17.3c0.1-9.2-1-26.4-0.4-34.6c1.6-20.9,4-29,4.9-47.6c0.1-2.2,0.2-4.4,0.3-6.9c0.3-7.9-3-24.7-6.5-42.6h0h0
			c-1.4-7.1-2.9-14.4-4.1-21.4l-0.1,0c-7.8,3.9-15.1,5.4-35.2,5.6c-13.5,0.1-27-2.8-37.4-7.1l-0.5-0.2c-1.3,7.3-2.9,14.9-4.2,21.6
			l0.3,0.2l-0.3-0.2c-1.8,9.4-3.2,17.2-3.2,21.1c0.3,10.8,1.7,22.1,3.6,33.2l0.3,0l-0.3,0c4.9,29.3,13,57,12.5,68.9
			c-0.2,5,0.7,30.3,1.7,37.2c1.7,11.9,5.7,21.8,8.5,31.4c0.9,3.2,1.9,7.1,3.1,11.2h0c7.5,3.8,17.6,0.9,18.6-0.6h-0.1
			c0.2-5.3,0.6-11.1,0.5-16.3c-0.1-7.7,1-21.6-2.2-32.4c-3-10.4-0.7-18.7-1-24.2c-0.4-8.6,0.9-6.6-2-22c-1.9-10.2,0.6-32.3,0.6-41.9
			c0-5.2,0.2-9.2,0.4-13h0c0,0,0.4-9.5,0.1-16.1l0.3-0.3c1.1,3.3,2.1,9.1,3,15.7l0,0c0.9,6.3,1.7,13.3,2.5,19.7
			c1.3,9.6,4,21.8,5.4,31.3c1.4,9.8,0.1,19.4,0.3,24.5c0.3,6.6,2.1,14.6,1,24.9c-1.6,14-3.2,13.3-3.2,22c0,7.5,1.7,18.1,3.2,28.4h0
			c2.6,1.8,16,2.2,22.4-1.6"/>
	</g>
</g>
</svg>
