<?xml version="1.0" encoding="utf-8"?>
<!-- Generator: Adobe Illustrator 19.0.0, SVG Export Plug-In . SVG Version: 6.00 Build 0)  -->
<svg version="1.1" id="doll" xmlns="http://www.w3.org/2000/svg" xmlns:xlink="http://www.w3.org/1999/xlink" x="0px" y="0px" height="600px"
	 viewBox="664.3 -260.8 236.8 680.6" style="enable-background:new 664.3 -260.8 236.8 680.6;" xml:space="preserve">
<style type="text/css">
	.st0{fill:none;stroke:#000000;stroke-miterlimit:10;}
	<!-- .st1{fill:#FFFFFF;stroke:#000000;stroke-miterlimit:10;} -->
</style>
<g id="body">
	<g id="Layer_1_2_">
		<path class="st0" d="M699.6-25c9.8,58.6,26,114,25,137.8c-0.4,10,1.4,60.6,3.4,74.4c3.4,23.8,11.4,43.6,17,62.8
			c5.4,19,13,49.4,19.8,71.6"/>
		<path class="st0" d="M698.8-133.8c-3.6,18.8-6.4,34.4-6.4,42.2c0.6,21.6,3.4,44.2,7.2,66.4"/>
		<path class="st0" d="M707.2-177c-2.6,14.6-5.8,29.8-8.4,43.2"/>
		<path class="st0" d="M711.6-260.8c0.6,11.8,3.6,30.8-0.4,59.6c-1.2,7.8-2.4,15.8-4,24.2"/>
		<path class="st0" d="M781-28.4c-0.4,7.6-0.8,15.4-0.8,26c0,19.2-5,63.6-1.2,83.8c5.8,30.8,3.2,26.8,4,44c0.6,11-4,27.6,2,48.4
			c6.4,21.6,4,49.4,4.4,64.8c0.2,15.6-1.6,33.4-1.2,47.6c0.4,12.4,0.4,24.6,1.6,37.4"/>
		<path class="st0" d="M781.2-60.6c0.6,13.2,0.2,22.2-0.2,32.2"/>
		<path class="st0" d="M787.6-29.8c1.8,12.6,3.4,26.6,5,39.4c2.6,19.2,8,43.6,10.8,62.6c2.8,19.6,0.2,38.8,0.6,49
			c0.6,13.2,4.2,29.2,2,49.8c-3.2,28-6.4,26.6-6.4,44c0,26.8,11,73.8,11,100.8"/>
		<path class="st0" d="M781.6-61.2c2.2,6.6,4.2,18.2,6,31.4"/>
		<path class="st0" d="M874.2-32c-2,37-6.8,53.4-9.8,95.2c-1.2,16.4,1,50.8,0.8,69.2c0,10.2-4,15.2-5.2,34.6
			c-1.2,19.8-0.6,38.4-1.8,50.2c-2.6,40-18.2,88.8-21.8,126.8"/>
		<path class="st0" d="M861.8-130.8c7,35.8,13.6,69.4,13,85.2c-0.2,5-0.4,9.6-0.6,13.8"/>
		<path class="st0" d="M853.4-173.6c2.6,14,5.6,28.6,8.2,42.8"/>
		<path class="st0" d="M848.6-260c0,15.2-4.8,29.2,0,59.4c1.4,8.4,3,17.6,4.8,26.8"/>
		<path class="st0" d="M874.8-260.8c0,53.8,9.6,125.2,17.4,177.6c0.8,7.4-1.2,9.8,0.8,22.6c2.4,15.8,8.2,27.8,7.6,34.6
			c-0.6,10.8-9.8,43.4-13.6,43c-4.6-0.6-1.2-11.4,0.8-21.4c1.2-6.4,2.4-10.2,2.4-14.8"/>
		<ellipse class="st0" cx="778.6" cy="-172" rx="1.8" ry="5"/>
		<path class="st0" d="M866-134.2"/>
		<path class="st0" d="M683.8-260.8c-7.6,84.6,0,92.4-10.6,172.8c-1.4,11,0.2,21.6-1.4,27.4c-2,6.4-8.2,27.2-6.8,30.2
			c2,4.2,3.2,20.8,7.4,24.8c6.8,6.4,17.4,13,18.8,10.8c2.6-4-10.4-12.6-13-16c-1.8-2.4-1.2-1.8-1.8-5.4"/>
		<path class="st0" d="M693-99.2c-1.6,11-7,31.2-7.8,39.4c-0.8,7.2,2,8.8,1,15.6c-0.4,2.8-1.4,5.8-1.8,8.6s1.2,7.2,0.8,9.8
			c-1.4,6-0.8,10.6-6.6,10.2c-3,0-4-5-4.6-10.8c-0.2-2.8,1.4-5.4,1.2-8c0-3.2-0.8-7-1.2-8.6"/>
		<path class="st0" d="M870.4-88c1.8,5.2,4,13,5.4,20.6c0.8,5,2.8,8,3.4,12.2c0.6,4.8-0.6,10.6-0.2,12.6c0.6,3.2,2.2,5.6,2.6,9
			c0.4,3.8-1.2,5.8-0.4,9.6c1.2,5.6,0.6,9.8,5.4,10.2c3.2,0.2,5-8.4,4.8-12.8c-0.2-2.6-1.2-12-1.2-14"/>
		<path class="st0" d="M689.6-0.2c0.6,0.2,2.6,2.8,3.6,2.4c3.4-3.2-10.8-15.6-12-17.8"/>
		<path class="st0" d="M692-2.4c6.8-1-5-12-8.2-16.4"/>
		<path class="st0" d="M691-11.4c3.2-3.6-4-8.6-6.6-11.4"/>
		<path class="st0" d="M886.4,2.2c-1.8,3-6.6,10-7.8,6.4c-2.6-5.8,7-13.2,10.8-19.6"/>
		<path class="st0" d="M888.8-9.8c-4,3.4-11.2,11.8-12.8,7c-1.4-3,4.2-8.6,8.2-12.2"/>
		<path class="st0" d="M883-15.6c-6.2,2.4-7-2.4-1.4-5"/>
		<path class="st0" d="M810.6,316c0,8,2.8,33.6,0,41c-2.8,8-3.4,5.2-4.6,14.4c-1.6,12,10.2,11,17.2,12c0,0,6.4-1,7.6-0.8
			c9.4,1.8,17.2,18,26,26c1,1,2.8,3.6,5.2,4c2.6,0.6,5.8,8.2,14.2,6.4c4.2-0.8,2.2-4.6,1-7.4s-6.4-5.4-7.6-6.6"/>
		<path class="st0" d="M836.6,343.8c0,9-1.8,9.4,1.2,13.6c3,4.4,4.8,8.4,13,14.6c11.4,8,31.2,18.8,32.8,21.6c1.4,3.4-0.4,4-2.6,2.4"
			/>
		<path class="st0" d="M876.8,411.4c1.4,1.4,6.4-0.6,4.4-3c-2-2.2-4.6-3.6-7-5.6"/>
		<path class="st0" d="M878.6,406.4c3.8,2.2,5.6,2.2,5.2-0.8c-0.2-2.8-4-4.6-7.4-7.4"/>
		<path class="st0" d="M882.8,403.4c3,1,1.2-4.2,1.2-4c-0.6-1.2-1-1.4-2.2-2.2c-1.6-1.2-2.8-3.4-4.8-4"/>
		<path class="st0" d="M789.8,323.6c1.8,13.8,8.2,20.4,7.4,30.8c-0.4,5.4-12.8,12-16,15.2c-4.4,4.4-6,5-8.2,12.6
			c-1.8,5.8-5.4,14.4-11.2,17.2c-5.2,2.6-4.6,3.6-7.4,5.2c-1.2,0.6-1.6,3-3.2,4.8c-2.6,2.8-6.8,3.2-10.8,1.8c-3.2-1.2-2.8-4.2-2-6
			c2-4.6,7-5.2,9-7c1.2-1.2,3.8-4.6,5-6.2"/>
		<path class="st0" d="M765,321c1.8,8.4,4.4,13.2,4.4,18c0,7.4-5.2,8.2-9,14.6c-2.6,4.4-8.6,13.2-12,17c-4.4,5-5.2,6.6-10,11.4
			c-3.8,4-6.8,4-7.4,7.8c0.4,1.2,2.2,1,4,0"/>
		<path class="st0" d="M742.6,400.6c-2,1.6-6.2,4-7,1c-0.6-3,7.8-7.8,9.6-9.4"/>
		<path class="st0" d="M738.4,397.4c-2.8,2.4-5.2,1-4.4-1.2c1.2-2.8,5.2-4.6,7.8-6.2"/>
		<path class="st0" d="M735,394.8c-2.2,0.6-4,0.6-3-1.6c1-2.2,4.6-4.6,6.8-5.8"/>
	</g>
</g>
<g id="low-waist">
		<path id="lowWaist" visibility="hidden" fill="#FFFFFF" stroke="#000000" stroke-miterlimit="10" d="M699.4-133.4c25.6,12.8,48.2,17.2,77.8,18.6c33.4,1.2,54-5.8,84.6-16.2l0,0l0,0l0,0
			c7,35.8,13.6,69.4,13,85.2c0,5-0.2,9.4-0.6,13.8c-2,37-6.8,53.4-9.8,95.2c-1.2,16.4,1,50.8,0.8,69.2c0,10.2-4,15.2-5.2,34.6
			c-1.2,19.8-0.6,38.4-1.8,50.2c-1.2,16.4-4.4,34-8,51.8h0.4c-12.8,7.6-39.6,7-44.8,3.2l0,0c-3-20.6-6.4-41.8-6.4-56.8
			c0-17.6,3.4-16,6.4-44c2.2-20.8-1.2-36.6-2-49.8c-0.4-10.4,2.2-29.4-0.6-49c-2.8-19-8.2-43.4-10.8-62.6c-1.8-12.8-3.4-26.8-5-39.4
			l0,0c-1.8-13.4-3.8-24.8-6-31.4l-0.6,0.6c0.6,13.2-0.2,32.2-0.2,32.2l0,0c-0.4,7.6-0.8,15.4-0.8,26c0,19.2-5,63.6-1.2,83.8
			c5.8,30.8,3.2,26.8,4,44c0.6,11-4,27.6,2,48.4c6.4,21.6,4,49.4,4.4,64.8c0.2,10.4-0.6,22-1,32.6h0.2c-2,2.8-22.2,8.6-37.2,1.2l0,0
			c-2.2-8.2-4.4-16-6.2-22.4c-5.6-19.2-13.6-39-17-62.8c-2-13.8-3.8-64.4-3.4-74.4c0.8-23.8-15.2-79.2-25-137.8h0.6h-0.6
			c-3.8-22.2-6.6-44.8-7.2-66.4c-0.2-7.8,2.6-23.6,6.4-42.2L699.4-133.4l-0.6-0.4"/>
</g>
<g id="high-waist">
	<g>
		<path id="highWaist" visibility="visible" fill="#FFFFFF" stroke="#000000" stroke-miterlimit="10" d="M850.4,268.8c3.6-17.8,6.8-35.4,8-51.8c1-11.8,0.6-30.2,1.8-50.2c1.2-19.2,5-24.2,5.2-34.6
			c0.2-18.4-2-52.8-0.8-69.2c3.2-41.8,8-58,9.8-95.2c0.2-4.4,0.4-8.8,0.6-13.8c0.6-15.8-6-49.4-13-85.2l0,0l0,0
			c-2.8-14.2-5.8-28.8-8.2-42.8h-0.2c-15.6,7.8-30.2,10.8-70.4,11.2c-27,0.2-54-5.6-74.8-14.2l-1-0.4c-2.6,14.6-5.8,29.8-8.4,43.2
			l0.6,0.4l-0.6-0.4c-3.6,18.8-6.4,34.4-6.4,42.2c0.6,21.6,3.4,44.2,7.2,66.4h0.6h-0.6c9.8,58.6,26,114,25,137.8
			c-0.4,10,1.4,60.6,3.4,74.4c3.4,23.8,11.4,43.6,17,62.8c1.8,6.4,3.8,14.2,6.2,22.4l0,0c15,7.6,35.2,1.8,37.2-1.2h-0.2
			c0.4-10.6,1.2-22.2,1-32.6c-0.2-15.4,2-43.2-4.4-64.8c-6-20.8-1.4-37.4-2-48.4c-0.8-17.2,1.8-13.2-4-44
			c-3.8-20.4,1.2-64.6,1.2-83.8c0-10.4,0.4-18.4,0.8-26l0,0c0,0,0.8-19,0.2-32.2l0.6-0.6c2.2,6.6,4.2,18.2,6,31.4l0,0
			c1.8,12.6,3.4,26.6,5,39.4c2.6,19.2,8,43.6,10.8,62.6c2.8,19.6,0.2,38.8,0.6,49c0.6,13.2,4.2,29.2,2,49.8c-3.2,28-6.4,26.6-6.4,44
			c0,15,3.4,36.2,6.4,56.8l0,0c5.2,3.6,32,4.4,44.8-3.2"/>
	</g>
</g>
</svg>
