<?xml version="1.0" encoding="utf-8"?>
<!-- Generator: Adobe Illustrator 19.0.0, SVG Export Plug-In . SVG Version: 6.00 Build 0)  -->
<svg version="1.1" id="doll" xmlns="http://www.w3.org/2000/svg" xmlns:xlink="http://www.w3.org/1999/xlink" x="0px" y="0px" height="600px"
	 viewBox="490.3 -216.8 236.8 680.6" style="enable-background:new 490.3 -216.8 236.8 680.6;" xml:space="preserve">
<style type="text/css">
	.st0{fill:none;stroke:#000000;stroke-miterlimit:10;}
<!-- 	.st1{display:none;fill:#FFFFFF;stroke:#000000;stroke-miterlimit:10;}
	.st2{fill:#FFFFFF;stroke:#000000;stroke-miterlimit:10;}
 --></style>
<g id="body">
	<g id="Layer_1_2_">
		<path class="st0" d="M525.6,19c9.8,58.6,26,114,25,137.8c-0.4,10,1.4,60.6,3.4,74.4c3.4,23.8,11.4,43.6,17,62.8
			c5.4,19,13,49.4,19.8,71.6"/>
		<path class="st0" d="M524.8-89.8c-3.6,18.8-6.4,34.4-6.4,42.2c0.6,21.6,3.4,44.2,7.2,66.4"/>
		<path class="st0" d="M533.2-133c-2.6,14.6-5.8,29.8-8.4,43.2"/>
		<path class="st0" d="M537.6-216.8c0.6,11.8,3.6,30.8-0.4,59.6c-1.2,7.8-2.4,15.8-4,24.2"/>
		<path class="st0" d="M607,15.6c-0.4,7.6-0.8,15.4-0.8,26c0,19.2-5,63.6-1.2,83.8c5.8,30.8,3.2,26.8,4,44c0.6,11-4,27.6,2,48.4
			c6.4,21.6,4,49.4,4.4,64.8c0.2,15.6-1.6,33.4-1.2,47.6c0.4,12.4,0.4,24.6,1.6,37.4"/>
		<path class="st0" d="M607.2-16.6c0.6,13.2,0.2,22.2-0.2,32.2"/>
		<path class="st0" d="M613.6,14.2c1.8,12.6,3.4,26.6,5,39.4c2.6,19.2,8,43.6,10.8,62.6c2.8,19.6,0.2,38.8,0.6,49
			c0.6,13.2,4.2,29.2,2,49.8c-3.2,28-6.4,26.6-6.4,44c0,26.8,11,73.8,11,100.8"/>
		<path class="st0" d="M607.6-17.2c2.2,6.6,4.2,18.2,6,31.4"/>
		<path class="st0" d="M700.2,12c-2,37-6.8,53.4-9.8,95.2c-1.2,16.4,1,50.8,0.8,69.2c0,10.2-4,15.2-5.2,34.6
			c-1.2,19.8-0.6,38.4-1.8,50.2c-2.6,40-18.2,88.8-21.8,126.8"/>
		<path class="st0" d="M687.8-86.8c7,35.8,13.6,69.4,13,85.2c-0.2,5-0.4,9.6-0.6,13.8"/>
		<path class="st0" d="M679.4-129.6c2.6,14,5.6,28.6,8.2,42.8"/>
		<path class="st0" d="M674.6-216c0,15.2-4.8,29.2,0,59.4c1.4,8.4,3,17.6,4.8,26.8"/>
		<path class="st0" d="M700.8-216.8c0,53.8,9.6,125.2,17.4,177.6c0.8,7.4-1.2,9.8,0.8,22.6c2.4,15.8,8.2,27.8,7.6,34.6
			c-0.6,10.8-9.8,43.4-13.6,43c-4.6-0.6-1.2-11.4,0.8-21.4c1.2-6.4,2.4-10.2,2.4-14.8"/>
		<ellipse class="st0" cx="604.6" cy="-128" rx="1.8" ry="5"/>
		<path class="st0" d="M692-90.2"/>
		<path class="st0" d="M509.8-216.8c-7.6,84.6,0,92.4-10.6,172.8c-1.4,11,0.2,21.6-1.4,27.4c-2,6.4-8.2,27.2-6.8,30.2
			c2,4.2,3.2,20.8,7.4,24.8c6.8,6.4,17.4,13,18.8,10.8c2.6-4-10.4-12.6-13-16c-1.8-2.4-1.2-1.8-1.8-5.4"/>
		<path class="st0" d="M519-55.2c-1.6,11-7,31.2-7.8,39.4c-0.8,7.2,2,8.8,1,15.6c-0.4,2.8-1.4,5.8-1.8,8.6s1.2,7.2,0.8,9.8
			c-1.4,6-0.8,10.6-6.6,10.2c-3,0-4-5-4.6-10.8c-0.2-2.8,1.4-5.4,1.2-8c0-3.2-0.8-7-1.2-8.6"/>
		<path class="st0" d="M696.4-44c1.8,5.2,4,13,5.4,20.6c0.8,5,2.8,8,3.4,12.2c0.6,4.8-0.6,10.6-0.2,12.6c0.6,3.2,2.2,5.6,2.6,9
			c0.4,3.8-1.2,5.8-0.4,9.6c1.2,5.6,0.6,9.8,5.4,10.2c3.2,0.2,5-8.4,4.8-12.8c-0.2-2.6-1.2-12-1.2-14"/>
		<path class="st0" d="M515.6,43.8c0.6,0.2,2.6,2.8,3.6,2.4c3.4-3.2-10.8-15.6-12-17.8"/>
		<path class="st0" d="M518,41.6c6.8-1-5-12-8.2-16.4"/>
		<path class="st0" d="M517,32.6c3.2-3.6-4-8.6-6.6-11.4"/>
		<path class="st0" d="M712.4,46.2c-1.8,3-6.6,10-7.8,6.4c-2.6-5.8,7-13.2,10.8-19.6"/>
		<path class="st0" d="M714.8,34.2c-4,3.4-11.2,11.8-12.8,7c-1.4-3,4.2-8.6,8.2-12.2"/>
		<path class="st0" d="M709,28.4c-6.2,2.4-7-2.4-1.4-5"/>
		<path class="st0" d="M636.6,360c0,8,2.8,33.6,0,41c-2.8,8-3.4,5.2-4.6,14.4c-1.6,12,10.2,11,17.2,12c0,0,6.4-1,7.6-0.8
			c9.4,1.8,17.2,18,26,26c1,1,2.8,3.6,5.2,4c2.6,0.6,5.8,8.2,14.2,6.4c4.2-0.8,2.2-4.6,1-7.4s-6.4-5.4-7.6-6.6"/>
		<path class="st0" d="M662.6,387.8c0,9-1.8,9.4,1.2,13.6c3,4.4,4.8,8.4,13,14.6c11.4,8,31.2,18.8,32.8,21.6c1.4,3.4-0.4,4-2.6,2.4"
			/>
		<path class="st0" d="M702.8,455.4c1.4,1.4,6.4-0.6,4.4-3c-2-2.2-4.6-3.6-7-5.6"/>
		<path class="st0" d="M704.6,450.4c3.8,2.2,5.6,2.2,5.2-0.8c-0.2-2.8-4-4.6-7.4-7.4"/>
		<path class="st0" d="M708.8,447.4c3,1,1.2-4.2,1.2-4c-0.6-1.2-1-1.4-2.2-2.2c-1.6-1.2-2.8-3.4-4.8-4"/>
		<path class="st0" d="M615.8,367.6c1.8,13.8,8.2,20.4,7.4,30.8c-0.4,5.4-12.8,12-16,15.2c-4.4,4.4-6,5-8.2,12.6
			c-1.8,5.8-5.4,14.4-11.2,17.2c-5.2,2.6-4.6,3.6-7.4,5.2c-1.2,0.6-1.6,3-3.2,4.8c-2.6,2.8-6.8,3.2-10.8,1.8c-3.2-1.2-2.8-4.2-2-6
			c2-4.6,7-5.2,9-7c1.2-1.2,3.8-4.6,5-6.2"/>
		<path class="st0" d="M591,365c1.8,8.4,4.4,13.2,4.4,18c0,7.4-5.2,8.2-9,14.6c-2.6,4.4-8.6,13.2-12,17c-4.4,5-5.2,6.6-10,11.4
			c-3.8,4-6.8,4-7.4,7.8c0.4,1.2,2.2,1,4,0"/>
		<path class="st0" d="M568.6,444.6c-2,1.6-6.2,4-7,1c-0.6-3,7.8-7.8,9.6-9.4"/>
		<path class="st0" d="M564.4,441.4c-2.8,2.4-5.2,1-4.4-1.2c1.2-2.8,5.2-4.6,7.8-6.2"/>
		<path class="st0" d="M561,438.8c-2.2,0.6-4,0.6-3-1.6s4.6-4.6,6.8-5.8"/>
	</g>
</g>
<g id="low-waist">
	<path id="lowWaist" visibility="hidden" fill="#FFFFFF" stroke="#000000" stroke-miterlimit="10" d="M687.8-86.8L687.8-86.8L687.8-86.8c7,35.8,13.6,69.4,13,85.2c-0.2,5-0.4,9.6-0.6,13.8
		c-2,37-6.8,53.4-9.8,95.2c-1.2,16.4,1,50.8,0.8,69.2c0,8.4-2.6,13.2-4.4,25.2c0,0,0.8,173.6-1.8,211.6c-10.4,2.6-44.4-1-57-7
		c0,0,0-25.4,0-39.8c0-36.2-2.6-71.6-2.6-107.8v0.6c0-17.6,3.4-16,6.4-44c2.4-20.8-1.2-36.6-2-49.8c-0.4-10.4,2.2-29.6-0.6-49
		c-2.8-19-8.2-43.4-10.8-62.6c-1.8-12.8-3.4-26.8-5-39.4l0,0c-1.8-13.4-3.8-24.8-6-31.4l-0.6,0.6C607.4-3,606.6,16,606.6,16l0,0
		c-0.4,7.6-0.8,15.4-0.8,26c0,19.2-5,63.6-1.2,83.8c5.8,30.8,3.2,26.8,4,44c0.6,11-4,27.6,2,48.4c2.8,10,4,21.2,4.4,32l0,0
		c4.4,51.8,4.8,61,7,93.4c1.8,26,3.4,44,3.4,44c-9,5.8-51.4,18.6-61.4,16.4c-4.4-39-2.6-92.4-9-165.8l0,0c-0.4-2.2-0.8-4.4-1.2-6.8
		c-2-13.8-3.8-64.4-3.4-74.4c0,0-0.2,6.2,0,0c0.8-23.8-15.2-79.2-25-137.8h0.6h-0.6c-3.8-22.2-6.6-44.8-7.2-66.4
		c-0.2-7.8,2.6-23.6,6.4-42.2l0.6,0.4l-0.6-0.4l0.6,0.4c25.6,12.8,48.2,17.2,77.8,18.6C636.4-69.4,657-76.6,687.8-86.8L687.8-86.8z"
		/>
</g>
<g id="high-waist">
	<path id="highWaist" visibility="visible" fill="#FFFFFF" stroke="#000000" stroke-miterlimit="10" d="M550.8,156.8c-0.4,10,1.4,60.6,3.4,74.4c0.4,2.4,0.6,4.6,1.2,6.8l0,0
		c6.4,73.2,4.8,126.6,9,165.8c10,2.2,52.2-10.6,61.4-16.4c0,0-1.8-18.2-3.4-44c-2.2-32.4-2.6-41.4-7-93.4l0,0
		c-0.4-10.8-1.4-22-4.4-32c-6-20.8-1.4-37.4-2-48.4c-0.8-17.2,1.8-13.2-4-44c-3.8-20.4,1.2-64.6,1.2-83.8c0-10.4,0.4-18.4,0.8-26
		l0,0c0,0,0.8-19,0.2-32.2l0.6-0.6c2.2,6.6,4.2,18.2,6,31.4l0,0c1.8,12.6,3.4,26.6,5,39.4c2.6,19.2,8,43.6,10.8,62.6
		c2.8,19.6,0.2,38.8,0.6,49c0.6,13.2,4.2,29.2,2,49.8c-3.2,28-6.4,26.6-6.4,44v-0.6c0,36.2,2.6,71.6,2.6,107.8c0,14.2,0,39.8,0,39.8
		c12.6,5.8,46.6,9.6,57,7c2.6-38,1.8-211.6,1.8-211.6c1.6-12,4.2-16.8,4.4-25.2c0.2-18.4-2-52.8-0.8-69.2c3.2-41.8,8-58,9.8-95.2
		c0.2-4.4,0.4-8.8,0.6-13.8c0.6-15.8-6-49.4-13-85.2l0,0l0,0c-2.8-14.2-5.8-28.8-8.2-42.8h-0.2c-15.6,7.8-30.2,10.8-70.4,11.2
		c-27,0.2-54-5.6-74.8-14.2l-1-0.4c-2.6,14.6-5.8,29.8-8.4,43.2l0.6,0.4l-0.6-0.4c-3.6,18.8-6.4,34.4-6.4,42.2
		c0.6,21.6,3.4,44.2,7.2,66.4h0.6H526C535.6,77.6,551.6,133,550.8,156.8C550.6,163,550.8,156.8,550.8,156.8z"/>
</g>
</svg>
